Unna-Bold.ufo
<glyph name="exclam" format="1">
  <advance width="291"/>
  <unicode hex="0021"/>
  <outline>
    <contour>
      <point x="99" y="637"/>
      <point x="75" y="601"/>
      <point x="75" y="552" type="curve" smooth="yes"/>
      <point x="75" y="533"/>
      <point x="78" y="514"/>
      <point x="85" y="485" type="curve" smooth="yes"/>
      <point x="106" y="401" type="line" smooth="yes"/>
      <point x="120" y="345"/>
      <point x="138" y="285"/>
      <point x="138" y="222" type="curve" smooth="yes"/>
      <point x="138" y="210"/>
      <point x="142" y="201"/>
      <point x="155" y="201" type="curve" smooth="yes"/>
      <point x="167" y="201"/>
      <point x="171" y="210"/>
      <point x="171" y="222" type="curve" smooth="yes"/>
      <point x="171" y="285"/>
      <point x="188" y="345"/>
      <point x="202" y="401" type="curve" smooth="yes"/>
      <point x="224" y="485" type="line" smooth="yes"/>
      <point x="231" y="514"/>
      <point x="234" y="533"/>
      <point x="234" y="552" type="curve" smooth="yes"/>
      <point x="234" y="601"/>
      <point x="210" y="637"/>
      <point x="152" y="637" type="curve" smooth="yes"/>
    </contour>
    <contour>
      <point x="96" y="151"/>
      <point x="55" y="115"/>
      <point x="55" y="71" type="curve" smooth="yes"/>
      <point x="55" y="25"/>
      <point x="96" y="-10"/>
      <point x="155" y="-10" type="curve" smooth="yes"/>
      <point x="214" y="-10"/>
      <point x="256" y="25"/>
      <point x="256" y="71" type="curve" smooth="yes"/>
      <point x="256" y="115"/>
      <point x="214" y="151"/>
      <point x="155" y="151" type="curve" smooth="yes"/>
    </contour>
  </outline>
</glyph>
<glyph name="dollar" format="1">
  <advance width="448"/>
  <unicode hex="0024"/>
  <outline>
    <contour>
      <point x="201" y="129" type="line"/>
      <point x="201" y="-95" type="line"/>
      <point x="248" y="-95" type="line"/>
      <point x="248" y="129" type="line"/>
    </contour>
    <contour>
      <point x="248" y="458" type="line"/>
      <point x="248" y="647" type="line"/>
      <point x="201" y="647" type="line"/>
      <point x="201" y="462" type="line"/>
    </contour>
    <contour>
      <point x="77" y="134"/>
      <point x="86" y="136"/>
      <point x="98" y="136" type="curve" smooth="yes"/>
      <point x="104" y="136"/>
      <point x="112" y="135"/>
      <point x="123" y="133" type="curve"/>
      <point x="178" y="119"/>
      <point x="198" y="115"/>
      <point x="226" y="115" type="curve" smooth="yes"/>
      <point x="316" y="115"/>
      <point x="376" y="162"/>
      <point x="376" y="245" type="curve" smooth="yes"/>
      <point x="376" y="297"/>
      <point x="359" y="340"/>
      <point x="258" y="362" type="curve" smooth="yes"/>
      <point x="221" y="370" type="line" smooth="yes"/>
      <point x="192" y="376"/>
      <point x="182" y="389"/>
      <point x="182" y="409" type="curve" smooth="yes"/>
      <point x="182" y="429"/>
      <point x="201" y="442"/>
      <point x="229" y="442" type="curve" smooth="yes"/>
      <point x="291" y="442"/>
      <point x="325" y="407"/>
      <point x="325" y="373" type="curve"/>
      <point x="355" y="373" type="line"/>
      <point x="359" y="464" type="line"/>
      <point x="352" y="460"/>
      <point x="342" y="458"/>
      <point x="334" y="458" type="curve" smooth="yes"/>
      <point x="302" y="458"/>
      <point x="270" y="475"/>
      <point x="219" y="475" type="curve" smooth="yes"/>
      <point x="125" y="475"/>
      <point x="76" y="423"/>
      <point x="76" y="351" type="curve" smooth="yes"/>
      <point x="76" y="295"/>
      <point x="105" y="262"/>
      <point x="190" y="239" type="curve" smooth="yes"/>
      <point x="230" y="228" type="line" smooth="yes"/>
      <point x="266" y="218"/>
      <point x="278" y="208"/>
      <point x="278" y="186" type="curve" smooth="yes"/>
      <point x="278" y="161"/>
      <point x="257" y="149"/>
      <point x="229" y="149" type="curve" smooth="yes"/>
      <point x="164" y="149"/>
      <point x="109" y="185"/>
      <point x="109" y="238" type="curve"/>
      <point x="76" y="237" type="line"/>
      <point x="72" y="131" type="line"/>
    </contour>
  </outline>
</glyph>
<glyph name="percent" format="1">
  <advance width="610"/>
  <unicode hex="0025"/>
  <outline>
    <contour>
      <point x="293" y="52"/>
      <point x="344" y="-10"/>
      <point x="451" y="-10" type="curve" smooth="yes"/>
      <point x="557" y="-10"/>
      <point x="610" y="50"/>
      <point x="610" y="129" type="curve" smooth="yes"/>
      <point x="610" y="209"/>
      <point x="556" y="269"/>
      <point x="451" y="269" type="curve" smooth="yes"/>
      <point x="351" y="269"/>
      <point x="293" y="211"/>
      <point x="293" y="129" type="curve" smooth="yes"/>
    </contour>
    <contour>
      <point x="412" y="217"/>
      <point x="421" y="243"/>
      <point x="451" y="243" type="curve" smooth="yes"/>
      <point x="482" y="243"/>
      <point x="492" y="220"/>
      <point x="492" y="130" type="curve" smooth="yes"/>
      <point x="492" y="42"/>
      <point x="482" y="18"/>
      <point x="451" y="18" type="curve" smooth="yes"/>
      <point x="421" y="18"/>
      <point x="412" y="40"/>
      <point x="412" y="130" type="curve" smooth="yes"/>
    </contour>
    <contour>
      <point x="0" y="390"/>
      <point x="51" y="328"/>
      <point x="158" y="328" type="curve" smooth="yes"/>
      <point x="264" y="328"/>
      <point x="317" y="388"/>
      <point x="317" y="467" type="curve" smooth="yes"/>
      <point x="317" y="547"/>
      <point x="263" y="607"/>
      <point x="158" y="607" type="curve" smooth="yes"/>
      <point x="58" y="607"/>
      <point x="0" y="549"/>
      <point x="0" y="467" type="curve" smooth="yes"/>
    </contour>
    <contour>
      <point x="119" y="555"/>
      <point x="128" y="581"/>
      <point x="158" y="581" type="curve" smooth="yes"/>
      <point x="189" y="581"/>
      <point x="199" y="558"/>
      <point x="199" y="468" type="curve" smooth="yes"/>
      <point x="199" y="380"/>
      <point x="189" y="356"/>
      <point x="158" y="356" type="curve" smooth="yes"/>
      <point x="128" y="356"/>
      <point x="119" y="378"/>
      <point x="119" y="468" type="curve" smooth="yes"/>
    </contour>
    <component base="fraction" xOffset="215"/>
  </outline>
</glyph>
<glyph name="ampersand" format="1">
  <advance width="628"/>
  <unicode hex="0026"/>
  <outline>
    <contour>
      <point x="505" y="-10"/>
      <point x="534" y="239"/>
      <point x="543" y="340" type="curve" smooth="yes"/>
      <point x="544" y="355"/>
      <point x="547" y="362"/>
      <point x="556" y="362" type="curve"/>
      <point x="597" y="360" type="line"/>
      <point x="597" y="399" type="line"/>
      <point x="446" y="399" type="line"/>
      <point x="446" y="360" type="line"/>
      <point x="487" y="362" type="line"/>
      <point x="498" y="363"/>
      <point x="501" y="353"/>
      <point x="501" y="331" type="curve" smooth="yes"/>
      <point x="501" y="219"/>
      <point x="429" y="32"/>
      <point x="296" y="32" type="curve" smooth="yes"/>
      <point x="228" y="32"/>
      <point x="171" y="81"/>
      <point x="171" y="176" type="curve" smooth="yes"/>
      <point x="171" y="225"/>
      <point x="186" y="286"/>
      <point x="230" y="316" type="curve"/>
      <point x="209" y="351" type="line"/>
      <point x="71" y="298"/>
      <point x="22" y="226"/>
      <point x="22" y="150" type="curve" smooth="yes"/>
      <point x="22" y="30"/>
      <point x="143" y="-10"/>
      <point x="247" y="-10" type="curve" smooth="yes"/>
    </contour>
    <contour>
      <point x="643" y="0" type="line"/>
      <point x="643" y="38" type="line"/>
      <point x="607" y="36" type="line"/>
      <point x="594" y="36"/>
      <point x="584" y="40"/>
      <point x="577" y="49" type="curve" smooth="yes"/>
      <point x="293" y="434" type="line" smooth="yes"/>
      <point x="271" y="464"/>
      <point x="254" y="488"/>
      <point x="254" y="516" type="curve" smooth="yes"/>
      <point x="254" y="551"/>
      <point x="280" y="566"/>
      <point x="311" y="566" type="curve" smooth="yes"/>
      <point x="353" y="566"/>
      <point x="377" y="537"/>
      <point x="377" y="494" type="curve" smooth="yes"/>
      <point x="377" y="451"/>
      <point x="352" y="428"/>
      <point x="306" y="398" type="curve"/>
      <point x="323" y="366" type="line"/>
      <point x="378" y="396"/>
      <point x="417" y="438"/>
      <point x="417" y="496" type="curve" smooth="yes"/>
      <point x="417" y="557"/>
      <point x="374" y="606"/>
      <point x="280" y="606" type="curve" smooth="yes"/>
      <point x="177" y="606"/>
      <point x="124" y="548"/>
      <point x="124" y="482" type="curve" smooth="yes"/>
      <point x="124" y="422"/>
      <point x="166" y="379"/>
      <point x="196" y="333" type="curve"/>
      <point x="443" y="0" type="line"/>
    </contour>
  </outline>
</glyph>
<glyph name="parenleft" format="1">
  <advance width="284"/>
  <unicode hex="0028"/>
  <outline>
    <contour>
      <point x="18" y="23"/>
      <point x="114" y="-95"/>
      <point x="231" y="-231" type="curve"/>
      <point x="284" y="-231" type="line"/>
      <point x="220" y="-116"/>
      <point x="182" y="36"/>
      <point x="182" y="240" type="curve" smooth="yes"/>
      <point x="182" y="444"/>
      <point x="220" y="596"/>
      <point x="284" y="711" type="curve"/>
      <point x="231" y="711" type="line"/>
      <point x="114" y="575"/>
      <point x="18" y="457"/>
      <point x="18" y="240" type="curve" smooth="yes"/>
    </contour>
  </outline>
</glyph>
<glyph name="comma" format="1">
  <advance width="284"/>
  <unicode hex="002C"/>
  <outline>
    <contour>
      <point x="100" y="-160" type="line"/>
      <point x="173" y="-126"/>
      <point x="244" y="-59"/>
      <point x="244" y="27" type="curve" smooth="yes"/>
      <point x="244" y="84"/>
      <point x="200" y="139"/>
      <point x="128" y="139" type="curve" smooth="yes"/>
      <point x="70" y="139"/>
      <point x="42" y="99"/>
      <point x="42" y="56" type="curve" smooth="yes"/>
      <point x="42" y="14"/>
      <point x="64" y="-8"/>
      <point x="106" y="-8" type="curve" smooth="yes"/>
      <point x="133" y="-8"/>
      <point x="144" y="-17"/>
      <point x="144" y="-38" type="curve" smooth="yes"/>
      <point x="144" y="-79"/>
      <point x="113" y="-118"/>
      <point x="80" y="-136" type="curve"/>
    </contour>
  </outline>
</glyph>
<glyph name="hyphen" format="1">
  <advance width="250"/>
  <unicode hex="002D"/>
  <outline>
    <contour>
      <point x="228" y="179" type="line"/>
      <point x="228" y="244" type="line"/>
      <point x="22" y="244" type="line"/>
      <point x="22" y="179" type="line"/>
    </contour>
  </outline>
</glyph>
<glyph name="one" format="1">
  <advance width="358"/>
  <unicode hex="0031"/>
  <outline>
    <contour>
      <point x="44" y="475" type="line"/>
      <point x="107" y="494" type="line" smooth="yes"/>
      <point x="118" y="499"/>
      <point x="126" y="491"/>
      <point x="126" y="479" type="curve" smooth="yes"/>
      <point x="126" y="53" type="line" smooth="yes"/>
      <point x="126" y="40"/>
      <point x="120" y="33"/>
      <point x="107" y="33" type="curve" smooth="yes"/>
      <point x="51" y="34" type="line"/>
      <point x="51" y="0" type="line"/>
      <point x="337" y="0" type="line"/>
      <point x="337" y="34" type="line"/>
      <point x="282" y="33" type="line" smooth="yes"/>
      <point x="270" y="33"/>
      <point x="264" y="40"/>
      <point x="264" y="53" type="curve" smooth="yes"/>
      <point x="264" y="618" type="line"/>
      <point x="242" y="618" type="line"/>
      <point x="224" y="604"/>
      <point x="205" y="590"/>
      <point x="183" y="577" type="curve" smooth="yes"/>
      <point x="146" y="555"/>
      <point x="94" y="528"/>
      <point x="31" y="514" type="curve"/>
    </contour>
  </outline>
</glyph>
<glyph name="three" format="1">
  <advance width="499"/>
  <unicode hex="0033"/>
  <outline>
    <contour>
      <point x="361" y="339"/>
      <point x="451" y="392"/>
      <point x="451" y="479" type="curve" smooth="yes"/>
      <point x="451" y="566"/>
      <point x="353" y="607"/>
      <point x="235" y="607" type="curve" smooth="yes"/>
      <point x="130" y="607"/>
      <point x="24" y="566"/>
      <point x="24" y="488" type="curve" smooth="yes"/>
      <point x="24" y="453"/>
      <point x="43" y="417"/>
      <point x="99" y="417" type="curve" smooth="yes"/>
      <point x="128" y="417"/>
      <point x="163" y="431"/>
      <point x="163" y="471" type="curve" smooth="yes"/>
      <point x="163" y="490"/>
      <point x="154" y="503"/>
      <point x="154" y="521" type="curve" smooth="yes"/>
      <point x="154" y="552"/>
      <point x="185" y="570"/>
      <point x="222" y="570" type="curve" smooth="yes"/>
      <point x="276" y="570"/>
      <point x="301" y="531"/>
      <point x="301" y="483" type="curve" smooth="yes"/>
      <point x="301" y="385"/>
      <point x="213" y="332"/>
      <point x="127" y="332" type="curve"/>
      <point x="127" y="298" type="line"/>
      <point x="280" y="283"/>
      <point x="338" y="250"/>
      <point x="338" y="161" type="curve" smooth="yes"/>
      <point x="338" y="85"/>
      <point x="292" y="28"/>
      <point x="216" y="28" type="curve" smooth="yes"/>
      <point x="181" y="28"/>
      <point x="141" y="42"/>
      <point x="141" y="78" type="curve" smooth="yes"/>
      <point x="141" y="93"/>
      <point x="149" y="112"/>
      <point x="149" y="126" type="curve" smooth="yes"/>
      <point x="149" y="160"/>
      <point x="122" y="181"/>
      <point x="85" y="181" type="curve" smooth="yes"/>
      <point x="36" y="181"/>
      <point x="9" y="150"/>
      <point x="9" y="110" type="curve" smooth="yes"/>
      <point x="9" y="37"/>
      <point x="103" y="-10"/>
      <point x="221" y="-10" type="curve" smooth="yes"/>
      <point x="376" y="-10"/>
      <point x="487" y="61"/>
      <point x="487" y="169" type="curve" smooth="yes"/>
      <point x="487" y="270"/>
      <point x="400" y="320"/>
      <point x="252" y="322" type="curve"/>
      <point x="252" y="325" type="line"/>
    </contour>
  </outline>
</glyph>
<glyph name="four" format="1">
  <advance width="491"/>
  <unicode hex="0034"/>
  <outline>
    <contour>
      <point x="342" y="604" type="line"/>
      <point x="321" y="576" type="line"/>
      <point x="303" y="554" type="line"/>
      <point x="68" y="276" type="line"/>
      <point x="38" y="245" type="line" smooth="yes"/>
      <point x="27" y="233"/>
      <point x="17" y="223"/>
      <point x="7" y="215" type="curve"/>
      <point x="7" y="144" type="line"/>
      <point x="269" y="144" type="line"/>
      <point x="269" y="53" type="line" smooth="yes"/>
      <point x="269" y="40"/>
      <point x="263" y="33"/>
      <point x="249" y="33" type="curve" smooth="yes"/>
      <point x="179" y="34" type="line"/>
      <point x="179" y="0" type="line"/>
      <point x="468" y="0" type="line"/>
      <point x="468" y="34" type="line"/>
      <point x="426" y="33" type="line" smooth="yes"/>
      <point x="413" y="33"/>
      <point x="406" y="40"/>
      <point x="406" y="53" type="curve" smooth="yes"/>
      <point x="406" y="144" type="line"/>
      <point x="485" y="144" type="line"/>
      <point x="485" y="224" type="line"/>
      <point x="406" y="224" type="line"/>
      <point x="406" y="604" type="line"/>
    </contour>
    <contour>
      <point x="269" y="224" type="line"/>
      <point x="73" y="224" type="line"/>
      <point x="269" y="455" type="line"/>
    </contour>
  </outline>
</glyph>
<glyph name="five" format="1">
  <advance width="483"/>
  <unicode hex="0035"/>
  <outline>
    <contour>
      <point x="422" y="599"/>
      <point x="405" y="597"/>
      <point x="353" y="597" type="curve" smooth="yes"/>
      <point x="77" y="597" type="line"/>
      <point x="50" y="272" type="line"/>
      <point x="81" y="272" type="line"/>
      <point x="96" y="296"/>
      <point x="146" y="319"/>
      <point x="191" y="319" type="curve" smooth="yes"/>
      <point x="272" y="319"/>
      <point x="313" y="275"/>
      <point x="313" y="168" type="curve" smooth="yes"/>
      <point x="313" y="85"/>
      <point x="297" y="26"/>
      <point x="215" y="26" type="curve" smooth="yes"/>
      <point x="182" y="26"/>
      <point x="152" y="41"/>
      <point x="152" y="74" type="curve" smooth="yes"/>
      <point x="152" y="88"/>
      <point x="162" y="106"/>
      <point x="162" y="126" type="curve" smooth="yes"/>
      <point x="162" y="159"/>
      <point x="135" y="183"/>
      <point x="95" y="183" type="curve" smooth="yes"/>
      <point x="56" y="183"/>
      <point x="22" y="155"/>
      <point x="22" y="106" type="curve" smooth="yes"/>
      <point x="22" y="11"/>
      <point x="141" y="-10"/>
      <point x="216" y="-10" type="curve" smooth="yes"/>
      <point x="353" y="-10"/>
      <point x="458" y="64"/>
      <point x="458" y="189" type="curve" smooth="yes"/>
      <point x="458" y="307"/>
      <point x="366" y="372"/>
      <point x="246" y="372" type="curve" smooth="yes"/>
      <point x="170" y="372"/>
      <point x="96" y="341"/>
      <point x="65" y="307" type="curve"/>
      <point x="91" y="307" type="line"/>
      <point x="119" y="574" type="line"/>
      <point x="87" y="491" type="line"/>
      <point x="418" y="491" type="line"/>
      <point x="420" y="524"/>
      <point x="428" y="573"/>
      <point x="434" y="600" type="curve"/>
    </contour>
  </outline>
</glyph>
<glyph name="seven" format="1">
  <advance width="454"/>
  <unicode hex="0037"/>
  <outline>
    <contour>
      <point x="36" y="576"/>
      <point x="24" y="486"/>
      <point x="20" y="439" type="curve"/>
      <point x="58" y="439" type="line"/>
      <point x="63" y="478"/>
      <point x="88" y="491"/>
      <point x="145" y="491" type="curve" smooth="yes"/>
      <point x="392" y="491" type="line"/>
      <point x="417" y="562" type="line"/>
      <point x="169" y="331"/>
      <point x="138" y="152"/>
      <point x="136" y="0" type="curve"/>
      <point x="279" y="0" type="line"/>
      <point x="277" y="25"/>
      <point x="276" y="42"/>
      <point x="276" y="60" type="curve" smooth="yes"/>
      <point x="276" y="253"/>
      <point x="324" y="406"/>
      <point x="452" y="549" type="curve"/>
      <point x="446" y="597" type="line"/>
      <point x="164" y="597" type="line" smooth="yes"/>
      <point x="99" y="597"/>
      <point x="49" y="597"/>
      <point x="36" y="601" type="curve"/>
    </contour>
  </outline>
</glyph>
<glyph name="H" format="1">
  <advance width="696"/>
  <unicode hex="0048"/>
  <outline>
    <contour>
      <point x="310" y="0" type="line"/>
      <point x="310" y="39" type="line"/>
      <point x="261" y="37" type="line" smooth="yes"/>
      <point x="248" y="37"/>
      <point x="241" y="44"/>
      <point x="241" y="59" type="curve" smooth="yes"/>
      <point x="241" y="284" type="line"/>
      <point x="455" y="284" type="line"/>
      <point x="455" y="59" type="line" smooth="yes"/>
      <point x="455" y="44"/>
      <point x="449" y="37"/>
      <point x="436" y="37" type="curve" smooth="yes"/>
      <point x="387" y="39" type="line"/>
      <point x="387" y="0" type="line"/>
      <point x="661" y="0" type="line"/>
      <point x="661" y="39" type="line"/>
      <point x="627" y="37" type="line" smooth="yes"/>
      <point x="614" y="36"/>
      <point x="608" y="44"/>
      <point x="608" y="59" type="curve" smooth="yes"/>
      <point x="608" y="538" type="line" smooth="yes"/>
      <point x="608" y="550"/>
      <point x="614" y="560"/>
      <point x="627" y="559" type="curve" smooth="yes"/>
      <point x="661" y="557" type="line"/>
      <point x="661" y="597" type="line"/>
      <point x="387" y="597" type="line"/>
      <point x="387" y="557" type="line"/>
      <point x="436" y="559" type="line" smooth="yes"/>
      <point x="451" y="560"/>
      <point x="455" y="549"/>
      <point x="455" y="538" type="curve" smooth="yes"/>
      <point x="455" y="322" type="line"/>
      <point x="241" y="322" type="line"/>
      <point x="241" y="538" type="line" smooth="yes"/>
      <point x="241" y="550"/>
      <point x="248" y="560"/>
      <point x="261" y="559" type="curve" smooth="yes"/>
      <point x="310" y="557" type="line"/>
      <point x="310" y="597" type="line"/>
      <point x="35" y="597" type="line"/>
      <point x="35" y="557" type="line"/>
      <point x="69" y="559" type="line" smooth="yes"/>
      <point x="84" y="560"/>
      <point x="88" y="549"/>
      <point x="88" y="538" type="curve" smooth="yes"/>
      <point x="88" y="59" type="line" smooth="yes"/>
      <point x="88" y="44"/>
      <point x="82" y="36"/>
      <point x="69" y="37" type="curve" smooth="yes"/>
      <point x="35" y="39" type="line"/>
      <point x="35" y="0" type="line"/>
    </contour>
    <contour>
      <point x="348" y="299" type="move" name="center"/>
    </contour>
    <contour>
      <point x="348" y="598" type="move" name="top"/>
    </contour>
  </outline>
</glyph>
<glyph name="L" format="1">
  <advance width="514"/>
  <unicode hex="004C"/>
  <outline>
    <contour>
      <point x="368" y="0" type="line" smooth="yes"/>
      <point x="439" y="0"/>
      <point x="480" y="-1"/>
      <point x="492" y="-3" type="curve"/>
      <point x="492" y="171" type="line"/>
      <point x="456" y="171" type="line"/>
      <point x="456" y="85"/>
      <point x="411" y="38"/>
      <point x="326" y="38" type="curve" smooth="yes"/>
      <point x="253" y="38" type="line" smooth="yes"/>
      <point x="245" y="38"/>
      <point x="241" y="42"/>
      <point x="241" y="51" type="curve" smooth="yes"/>
      <point x="241" y="538" type="line" smooth="yes"/>
      <point x="241" y="550"/>
      <point x="249" y="560"/>
      <point x="261" y="559" type="curve" smooth="yes"/>
      <point x="310" y="557" type="line"/>
      <point x="310" y="597" type="line"/>
      <point x="35" y="597" type="line"/>
      <point x="35" y="557" type="line"/>
      <point x="69" y="559" type="line" smooth="yes"/>
      <point x="80" y="560"/>
      <point x="88" y="549"/>
      <point x="88" y="538" type="curve" smooth="yes"/>
      <point x="88" y="59" type="line" smooth="yes"/>
      <point x="88" y="47"/>
      <point x="84" y="37"/>
      <point x="73" y="37" type="curve"/>
      <point x="35" y="40" type="line"/>
      <point x="35" y="0" type="line"/>
    </contour>
    <contour>
      <point x="177" y="598" type="move" name="top"/>
    </contour>
    <contour>
      <point x="257" y="0" type="move" name="bottom"/>
    </contour>
    <contour>
      <point x="425" y="598" type="move" name="topright"/>
    </contour>
  </outline>
</glyph>
<glyph name="O" format="1">
  <advance width="680"/>
  <unicode hex="004F"/>
  <outline>
    <contour>
      <point x="25" y="103"/>
      <point x="140" y="-10"/>
      <point x="340" y="-10" type="curve" smooth="yes"/>
      <point x="540" y="-10"/>
      <point x="655" y="103"/>
      <point x="655" y="299" type="curve" smooth="yes"/>
      <point x="655" y="493"/>
      <point x="544" y="607"/>
      <point x="340" y="607" type="curve" smooth="yes"/>
      <point x="142" y="607"/>
      <point x="25" y="499"/>
      <point x="25" y="299" type="curve" smooth="yes"/>
    </contour>
    <contour>
      <point x="192" y="513"/>
      <point x="240" y="570"/>
      <point x="340" y="570" type="curve" smooth="yes"/>
      <point x="440" y="570"/>
      <point x="488" y="513"/>
      <point x="488" y="299" type="curve" smooth="yes"/>
      <point x="488" y="84"/>
      <point x="440" y="27"/>
      <point x="340" y="27" type="curve" smooth="yes"/>
      <point x="240" y="27"/>
      <point x="192" y="84"/>
      <point x="192" y="299" type="curve" smooth="yes"/>
    </contour>
    <contour>
      <point x="340" y="598" type="move" name="top"/>
    </contour>
  </outline>
</glyph>
<glyph name="Q" format="1">
  <advance width="668"/>
  <unicode hex="0051"/>
  <outline>
    <contour>
      <point x="254" y="3" type="line"/>
      <point x="247" y="-113"/>
      <point x="360" y="-196"/>
      <point x="541" y="-196" type="curve"/>
      <point x="550" y="-158" type="line"/>
      <point x="462" y="-158"/>
      <point x="409" y="-88"/>
      <point x="415" y="5" type="curve"/>
    </contour>
    <component base="O"/>
  </outline>
</glyph>
<glyph name="S" format="1">
  <advance width="499"/>
  <unicode hex="0053"/>
  <outline>
    <contour>
      <point x="43" y="200"/>
      <point x="46" y="137"/>
      <point x="46" y="88" type="curve" smooth="yes"/>
      <point x="46" y="60"/>
      <point x="45" y="29"/>
      <point x="42" y="13" type="curve"/>
      <point x="44" y="14"/>
      <point x="66" y="18"/>
      <point x="82" y="18" type="curve" smooth="yes"/>
      <point x="97" y="18"/>
      <point x="117" y="14"/>
      <point x="160" y="3" type="curve" smooth="yes"/>
      <point x="199" y="-7"/>
      <point x="222" y="-10"/>
      <point x="252" y="-10" type="curve" smooth="yes"/>
      <point x="410" y="-10"/>
      <point x="479" y="81"/>
      <point x="479" y="187" type="curve" smooth="yes"/>
      <point x="479" y="275"/>
      <point x="433" y="319"/>
      <point x="333" y="364" type="curve" smooth="yes"/>
      <point x="251" y="399" type="line" smooth="yes"/>
      <point x="187" y="425"/>
      <point x="165" y="452"/>
      <point x="165" y="486" type="curve" smooth="yes"/>
      <point x="165" y="536"/>
      <point x="211" y="570"/>
      <point x="273" y="570" type="curve" smooth="yes"/>
      <point x="351" y="570"/>
      <point x="418" y="516"/>
      <point x="418" y="434" type="curve"/>
      <point x="454" y="434" type="line"/>
      <point x="449" y="449"/>
      <point x="448" y="462"/>
      <point x="448" y="499" type="curve" smooth="yes"/>
      <point x="448" y="536"/>
      <point x="449" y="560"/>
      <point x="451" y="576" type="curve"/>
      <point x="443" y="573"/>
      <point x="432" y="572"/>
      <point x="423" y="572" type="curve" smooth="yes"/>
      <point x="412" y="572"/>
      <point x="404" y="574"/>
      <point x="393" y="578" type="curve"/>
      <point x="340" y="595"/>
      <point x="311" y="607"/>
      <point x="256" y="607" type="curve" smooth="yes"/>
      <point x="113" y="607"/>
      <point x="45" y="522"/>
      <point x="45" y="427" type="curve" smooth="yes"/>
      <point x="45" y="354"/>
      <point x="84" y="301"/>
      <point x="160" y="269" type="curve" smooth="yes"/>
      <point x="257" y="229" type="line" smooth="yes"/>
      <point x="324" y="203"/>
      <point x="351" y="170"/>
      <point x="351" y="124" type="curve" smooth="yes"/>
      <point x="351" y="69"/>
      <point x="311" y="28"/>
      <point x="241" y="28" type="curve" smooth="yes"/>
      <point x="159" y="28"/>
      <point x="87" y="84"/>
      <point x="73" y="203" type="curve"/>
      <point x="38" y="199" type="line"/>
    </contour>
    <contour>
      <point x="252" y="598" type="move" name="top"/>
    </contour>
    <contour>
      <point x="252" y="0" type="move" name="bottom"/>
    </contour>
  </outline>
</glyph>
<glyph name="T" format="1">
  <advance width="549"/>
  <unicode hex="0054"/>
  <outline>
    <contour>
      <point x="51" y="444" type="line"/>
      <point x="51" y="522"/>
      <point x="86" y="560"/>
      <point x="175" y="560" type="curve" smooth="yes"/>
      <point x="186" y="560" type="line" smooth="yes"/>
      <point x="194" y="560"/>
      <point x="198" y="556"/>
      <point x="198" y="548" type="curve" smooth="yes"/>
      <point x="198" y="62" type="line" smooth="yes"/>
      <point x="198" y="49"/>
      <point x="191" y="37"/>
      <point x="179" y="37" type="curve" smooth="yes"/>
      <point x="125" y="39" type="line"/>
      <point x="125" y="0" type="line"/>
      <point x="424" y="0" type="line"/>
      <point x="424" y="39" type="line"/>
      <point x="371" y="37" type="line" smooth="yes"/>
      <point x="358" y="37"/>
      <point x="351" y="44"/>
      <point x="351" y="59" type="curve" smooth="yes"/>
      <point x="351" y="549" type="line"/>
      <point x="352" y="556"/>
      <point x="356" y="560"/>
      <point x="363" y="560" type="curve" smooth="yes"/>
      <point x="375" y="560" type="line" smooth="yes"/>
      <point x="464" y="560"/>
      <point x="498" y="522"/>
      <point x="498" y="444" type="curve"/>
      <point x="534" y="444" type="line"/>
      <point x="534" y="600" type="line"/>
      <point x="529" y="599"/>
      <point x="513" y="598"/>
      <point x="484" y="598" type="curve" smooth="yes"/>
      <point x="407" y="598" type="line"/>
      <point x="143" y="598" type="line"/>
      <point x="65" y="598" type="line" smooth="yes"/>
      <point x="41" y="598"/>
      <point x="24" y="599"/>
      <point x="15" y="600" type="curve"/>
      <point x="15" y="444" type="line"/>
    </contour>
    <contour>
      <point x="275" y="299" type="move" name="center"/>
    </contour>
    <contour>
      <point x="275" y="0" type="move" name="bottom"/>
    </contour>
    <contour>
      <point x="275" y="598" type="move" name="top"/>
    </contour>
  </outline>
</glyph>
<glyph name="U" format="1">
  <advance width="661"/>
  <unicode hex="0055"/>
  <outline>
    <contour>
      <point x="73" y="559" type="line"/>
      <point x="84" y="560"/>
      <point x="92" y="549"/>
      <point x="92" y="538" type="curve" smooth="yes"/>
      <point x="92" y="199" type="line" smooth="yes"/>
      <point x="92" y="52"/>
      <point x="187" y="-10"/>
      <point x="363" y="-10" type="curve" smooth="yes"/>
      <point x="520" y="-10"/>
      <point x="577" y="73"/>
      <point x="577" y="208" type="curve" smooth="yes"/>
      <point x="577" y="539" type="line" smooth="yes"/>
      <point x="577" y="551"/>
      <point x="585" y="560"/>
      <point x="597" y="559" type="curve" smooth="yes"/>
      <point x="636" y="557" type="line"/>
      <point x="636" y="597" type="line"/>
      <point x="465" y="597" type="line"/>
      <point x="465" y="557" type="line"/>
      <point x="514" y="559" type="line"/>
      <point x="525" y="560"/>
      <point x="532" y="551"/>
      <point x="532" y="538" type="curve" smooth="yes"/>
      <point x="532" y="204" type="line" smooth="yes"/>
      <point x="532" y="105"/>
      <point x="501" y="34"/>
      <point x="391" y="34" type="curve" smooth="yes"/>
      <point x="299" y="34"/>
      <point x="245" y="82"/>
      <point x="245" y="199" type="curve" smooth="yes"/>
      <point x="245" y="539" type="line" smooth="yes"/>
      <point x="245" y="551"/>
      <point x="253" y="560"/>
      <point x="265" y="559" type="curve"/>
      <point x="314" y="557" type="line"/>
      <point x="314" y="597" type="line"/>
      <point x="35" y="597" type="line"/>
      <point x="35" y="557" type="line"/>
    </contour>
    <contour>
      <point x="483" y="14" type="move" name="ogonek"/>
    </contour>
    <contour>
      <point x="346" y="598" type="move" name="top"/>
    </contour>
  </outline>
</glyph>
<glyph name="X" format="1">
  <advance width="591"/>
  <unicode hex="0058"/>
  <outline>
    <contour>
      <point x="363" y="351" type="line"/>
      <point x="257" y="538" type="line" smooth="yes"/>
      <point x="251" y="548"/>
      <point x="254" y="560"/>
      <point x="271" y="559" type="curve" smooth="yes"/>
      <point x="313" y="557" type="line"/>
      <point x="313" y="597" type="line"/>
      <point x="30" y="597" type="line"/>
      <point x="30" y="557" type="line"/>
      <point x="52" y="559" type="line" smooth="yes"/>
      <point x="63" y="560"/>
      <point x="75" y="555"/>
      <point x="84" y="540" type="curve" smooth="yes"/>
      <point x="235" y="287" type="line"/>
    </contour>
    <contour>
      <point x="364" y="319" type="line"/>
      <point x="502" y="539" type="line" smooth="yes"/>
      <point x="510" y="552"/>
      <point x="521" y="559"/>
      <point x="533" y="559" type="curve" smooth="yes"/>
      <point x="569" y="557" type="line"/>
      <point x="569" y="597" type="line"/>
      <point x="402" y="597" type="line"/>
      <point x="402" y="557" type="line"/>
      <point x="445" y="559" type="line" smooth="yes"/>
      <point x="460" y="560"/>
      <point x="460" y="550"/>
      <point x="453" y="539" type="curve" smooth="yes"/>
      <point x="334" y="352" type="line"/>
      <point x="240" y="305" type="line"/>
      <point x="86" y="60" type="line" smooth="yes"/>
      <point x="77" y="45"/>
      <point x="66" y="38"/>
      <point x="52" y="38" type="curve" smooth="yes"/>
      <point x="16" y="40" type="line"/>
      <point x="16" y="0" type="line"/>
      <point x="185" y="0" type="line"/>
      <point x="185" y="40" type="line"/>
      <point x="140" y="37" type="line" smooth="yes"/>
      <point x="132" y="36"/>
      <point x="127" y="45"/>
      <point x="134" y="57" type="curve" smooth="yes"/>
      <point x="269" y="272" type="line"/>
    </contour>
    <contour>
      <point x="237" y="272" type="line"/>
      <point x="364" y="59" type="line" smooth="yes"/>
      <point x="371" y="47"/>
      <point x="372" y="35"/>
      <point x="357" y="36" type="curve" smooth="yes"/>
      <point x="308" y="39" type="line"/>
      <point x="308" y="0" type="line"/>
      <point x="598" y="0" type="line"/>
      <point x="598" y="39" type="line"/>
      <point x="569" y="36" type="line" smooth="yes"/>
      <point x="554" y="34"/>
      <point x="544" y="44"/>
      <point x="539" y="53" type="curve" smooth="yes"/>
      <point x="369" y="337" type="line"/>
    </contour>
  </outline>
</glyph>
<glyph name="Y" format="1">
  <advance width="576"/>
  <unicode hex="0059"/>
  <outline>
    <contour>
      <point x="363" y="309" type="line"/>
      <point x="227" y="535" type="line" smooth="yes"/>
      <point x="220" y="546"/>
      <point x="219" y="560"/>
      <point x="234" y="559" type="curve" smooth="yes"/>
      <point x="287" y="557" type="line"/>
      <point x="287" y="597" type="line"/>
      <point x="1" y="597" type="line"/>
      <point x="1" y="557" type="line"/>
      <point x="29" y="559"/>
      <point x="29" y="559"/>
      <point x="29" y="559" type="curve"/>
      <point x="38" y="559"/>
      <point x="45" y="553"/>
      <point x="53" y="540" type="curve" smooth="yes"/>
      <point x="225" y="254" type="line"/>
      <point x="225" y="59" type="line" smooth="yes"/>
      <point x="225" y="44"/>
      <point x="219" y="37"/>
      <point x="206" y="37" type="curve" smooth="yes"/>
      <point x="157" y="39" type="line"/>
      <point x="157" y="0" type="line"/>
      <point x="446" y="0" type="line"/>
      <point x="446" y="39" type="line"/>
      <point x="398" y="37" type="line" smooth="yes"/>
      <point x="383" y="37"/>
      <point x="378" y="46"/>
      <point x="378" y="58" type="curve" smooth="yes"/>
      <point x="378" y="309" type="line"/>
    </contour>
    <contour>
      <point x="376" y="266" type="line"/>
      <point x="528" y="538" type="line" smooth="yes"/>
      <point x="536" y="552"/>
      <point x="545" y="559"/>
      <point x="556" y="559" type="curve" smooth="yes"/>
      <point x="556" y="559"/>
      <point x="556" y="559"/>
      <point x="586" y="557" type="curve"/>
      <point x="586" y="597" type="line"/>
      <point x="424" y="597" type="line"/>
      <point x="424" y="557" type="line"/>
      <point x="476" y="559" type="line" smooth="yes"/>
      <point x="488" y="559"/>
      <point x="487" y="547"/>
      <point x="483" y="539" type="curve" smooth="yes"/>
      <point x="354" y="309" type="line"/>
    </contour>
    <contour>
      <point x="319" y="598" type="move" name="top"/>
    </contour>
  </outline>
</glyph>
<glyph name="Z" format="1">
  <advance width="558"/>
  <unicode hex="005A"/>
  <outline>
    <contour>
      <point x="417" y="0" type="line" smooth="yes"/>
      <point x="484" y="0"/>
      <point x="521" y="-1"/>
      <point x="530" y="-4" type="curve"/>
      <point x="538" y="167" type="line"/>
      <point x="501" y="167" type="line"/>
      <point x="501" y="85"/>
      <point x="442" y="37"/>
      <point x="351" y="37" type="curve" smooth="yes"/>
      <point x="171" y="37" type="line"/>
      <point x="204" y="7" type="line"/>
      <point x="535" y="573" type="line"/>
      <point x="535" y="597" type="line"/>
      <point x="170" y="597" type="line"/>
      <point x="126" y="597"/>
      <point x="80" y="600"/>
      <point x="61" y="600" type="curve"/>
      <point x="61" y="443" type="line"/>
      <point x="98" y="443" type="line"/>
      <point x="98" y="523"/>
      <point x="144" y="559"/>
      <point x="239" y="559" type="curve" smooth="yes"/>
      <point x="400" y="559" type="line"/>
      <point x="367" y="590" type="line"/>
      <point x="30" y="27" type="line"/>
      <point x="30" y="0" type="line"/>
    </contour>
    <contour>
      <point x="302" y="598" type="move" name="top"/>
    </contour>
  </outline>
</glyph>
<glyph name="bracketleft" format="1">
  <advance width="286"/>
  <unicode hex="005B"/>
  <outline>
    <contour>
      <point x="253" y="-147" type="line"/>
      <point x="253" y="-110" type="line"/>
      <point x="179" y="-110" type="line"/>
      <point x="179" y="638" type="line"/>
      <point x="253" y="638" type="line"/>
      <point x="253" y="675" type="line"/>
      <point x="46" y="675" type="line"/>
      <point x="46" y="-147" type="line"/>
    </contour>
  </outline>
</glyph>
<glyph name="asciicircum" format="1">
  <advance width="460"/>
  <unicode hex="005E"/>
  <outline>
    <contour>
      <point x="74" y="321" type="line"/>
      <point x="221" y="566" type="line"/>
      <point x="230" y="593" type="line"/>
      <point x="240" y="566" type="line"/>
      <point x="385" y="321" type="line"/>
      <point x="442" y="321" type="line"/>
      <point x="242" y="657" type="line"/>
      <point x="219" y="657" type="line"/>
      <point x="18" y="321" type="line"/>
    </contour>
  </outline>
</glyph>
<glyph name="c" format="1">
  <advance width="444"/>
  <unicode hex="0063"/>
  <outline>
    <contour>
      <point x="118" y="437"/>
      <point x="15" y="369"/>
      <point x="15" y="210" type="curve" smooth="yes"/>
      <point x="15" y="44"/>
      <point x="130" y="-10"/>
      <point x="247" y="-10" type="curve" smooth="yes"/>
      <point x="331" y="-10"/>
      <point x="399" y="17"/>
      <point x="432" y="109" type="curve"/>
      <point x="399" y="122" type="line"/>
      <point x="370" y="49"/>
      <point x="323" y="30"/>
      <point x="278" y="30" type="curve" smooth="yes"/>
      <point x="219" y="30"/>
      <point x="168" y="64"/>
      <point x="168" y="225" type="curve" smooth="yes"/>
      <point x="168" y="360"/>
      <point x="204" y="400"/>
      <point x="254" y="400" type="curve" smooth="yes"/>
      <point x="283" y="400"/>
      <point x="309" y="387"/>
      <point x="309" y="357" type="curve" smooth="yes"/>
      <point x="309" y="340"/>
      <point x="300" y="332"/>
      <point x="300" y="314" type="curve" smooth="yes"/>
      <point x="300" y="281"/>
      <point x="328" y="265"/>
      <point x="361" y="265" type="curve" smooth="yes"/>
      <point x="407" y="265"/>
      <point x="430" y="296"/>
      <point x="430" y="330" type="curve" smooth="yes"/>
      <point x="430" y="390"/>
      <point x="357" y="437"/>
      <point x="248" y="437" type="curve" smooth="yes"/>
    </contour>
    <contour>
      <point x="229" y="427" type="move" name="top"/>
    </contour>
    <contour>
      <point x="229" y="0" type="move" name="bottom"/>
    </contour>
  </outline>
</glyph>
<glyph name="d" format="1">
  <advance width="530"/>
  <unicode hex="0064"/>
  <outline>
    <contour>
      <point x="20" y="65"/>
      <point x="67" y="-10"/>
      <point x="198" y="-10" type="curve" smooth="yes"/>
      <point x="263" y="-10"/>
      <point x="305" y="20"/>
      <point x="321" y="62" type="curve"/>
      <point x="321" y="59"/>
      <point x="319" y="50"/>
      <point x="319" y="38" type="curve" smooth="yes"/>
      <point x="319" y="16" type="line" smooth="yes"/>
      <point x="319" y="9"/>
      <point x="318" y="4"/>
      <point x="317" y="0" type="curve"/>
      <point x="515" y="0" type="line"/>
      <point x="515" y="36" type="line"/>
      <point x="483" y="34" type="line"/>
      <point x="474" y="34"/>
      <point x="470" y="40"/>
      <point x="470" y="53" type="curve" smooth="yes"/>
      <point x="470" y="730" type="line"/>
      <point x="265" y="730" type="line"/>
      <point x="265" y="695" type="line"/>
      <point x="311" y="697" type="line"/>
      <point x="320" y="697"/>
      <point x="324" y="688"/>
      <point x="324" y="677" type="curve" smooth="yes"/>
      <point x="324" y="360" type="line"/>
      <point x="310" y="400"/>
      <point x="262" y="437"/>
      <point x="197" y="437" type="curve" smooth="yes"/>
      <point x="81" y="437"/>
      <point x="20" y="360"/>
      <point x="20" y="212" type="curve" smooth="yes"/>
    </contour>
    <contour>
      <point x="176" y="318"/>
      <point x="191" y="385"/>
      <point x="241" y="385" type="curve" smooth="yes"/>
      <point x="292" y="385"/>
      <point x="322" y="327"/>
      <point x="322" y="230" type="curve" smooth="yes"/>
      <point x="322" y="187" type="line" smooth="yes"/>
      <point x="322" y="91"/>
      <point x="295" y="42"/>
      <point x="242" y="42" type="curve" smooth="yes"/>
      <point x="191" y="42"/>
      <point x="176" y="87"/>
      <point x="176" y="212" type="curve" smooth="yes"/>
    </contour>
    <contour>
      <point x="233" y="210" type="move" name="center"/>
    </contour>
    <contour>
      <point x="480" y="598" type="move" name="topright"/>
    </contour>
  </outline>
</glyph>
<glyph name="e" format="1">
  <advance width="474"/>
  <unicode hex="0065"/>
  <outline>
    <contour>
      <point x="96" y="437"/>
      <point x="15" y="370"/>
      <point x="15" y="212" type="curve" smooth="yes"/>
      <point x="15" y="59"/>
      <point x="88" y="-10"/>
      <point x="253" y="-10" type="curve" smooth="yes"/>
      <point x="355" y="-10"/>
      <point x="423" y="28"/>
      <point x="455" y="93" type="curve"/>
      <point x="427" y="112" type="line"/>
      <point x="408" y="74"/>
      <point x="364" y="33"/>
      <point x="297" y="33" type="curve" smooth="yes"/>
      <point x="213" y="34"/>
      <point x="171" y="95"/>
      <point x="171" y="207" type="curve"/>
      <point x="459" y="207" type="line"/>
      <point x="459" y="246" type="line" smooth="yes"/>
      <point x="459" y="372"/>
      <point x="373" y="437"/>
      <point x="250" y="437" type="curve" smooth="yes"/>
    </contour>
    <contour>
      <point x="292" y="400"/>
      <point x="309" y="358"/>
      <point x="309" y="275" type="curve" smooth="yes"/>
      <point x="309" y="248"/>
      <point x="301" y="242"/>
      <point x="289" y="242" type="curve" smooth="yes"/>
      <point x="172" y="242" type="line"/>
      <point x="172" y="328"/>
      <point x="192" y="400"/>
      <point x="246" y="400" type="curve" smooth="yes"/>
    </contour>
    <contour>
      <point x="364" y="10" type="move" name="ogonek"/>
    </contour>
    <contour>
      <point x="265" y="0" type="move" name="bottom"/>
    </contour>
    <contour>
      <point x="249" y="427" type="move" name="top"/>
    </contour>
  </outline>
</glyph>
<glyph name="f" format="1">
  <advance width="300"/>
  <unicode hex="0066"/>
  <outline>
    <contour>
      <point x="285" y="0" type="line"/>
      <point x="285" y="36" type="line"/>
      <point x="224" y="34" type="line" smooth="yes"/>
      <point x="215" y="34"/>
      <point x="211" y="40"/>
      <point x="211" y="53" type="curve" smooth="yes"/>
      <point x="211" y="392" type="line"/>
      <point x="280" y="392" type="line"/>
      <point x="280" y="427" type="line"/>
      <point x="210" y="427" type="line"/>
      <point x="210" y="449" type="line" smooth="yes"/>
      <point x="210" y="494"/>
      <point x="204" y="544"/>
      <point x="204" y="596" type="curve" smooth="yes"/>
      <point x="204" y="678"/>
      <point x="219" y="699"/>
      <point x="250" y="699" type="curve" smooth="yes"/>
      <point x="275" y="699"/>
      <point x="283" y="679"/>
      <point x="283" y="658" type="curve" smooth="yes"/>
      <point x="283" y="639"/>
      <point x="274" y="628"/>
      <point x="274" y="612" type="curve" smooth="yes"/>
      <point x="274" y="583"/>
      <point x="301" y="568"/>
      <point x="334" y="568" type="curve" smooth="yes"/>
      <point x="384" y="568"/>
      <point x="404" y="601"/>
      <point x="404" y="633" type="curve" smooth="yes"/>
      <point x="404" y="691"/>
      <point x="338" y="736"/>
      <point x="251" y="736" type="curve" smooth="yes"/>
      <point x="92" y="736"/>
      <point x="65" y="588"/>
      <point x="65" y="486" type="curve" smooth="yes"/>
      <point x="65" y="427" type="line"/>
      <point x="26" y="427" type="line"/>
      <point x="26" y="392" type="line"/>
      <point x="65" y="392" type="line"/>
      <point x="65" y="53" type="line" smooth="yes"/>
      <point x="65" y="40"/>
      <point x="61" y="34"/>
      <point x="52" y="34" type="curve"/>
      <point x="15" y="36" type="line"/>
      <point x="15" y="0" type="line"/>
    </contour>
  </outline>
</glyph>
<glyph name="g" format="1">
  <advance width="528"/>
  <unicode hex="0067"/>
  <outline>
    <contour>
      <point x="97" y="159" type="line" smooth="yes"/>
      <point x="60" y="125"/>
      <point x="50" y="104"/>
      <point x="50" y="76" type="curve" smooth="yes"/>
      <point x="50" y="14"/>
      <point x="125" y="-15"/>
      <point x="189" y="-15" type="curve" smooth="yes"/>
      <point x="289" y="-15" type="line" smooth="yes"/>
      <point x="355" y="-15"/>
      <point x="380" y="-41"/>
      <point x="380" y="-91" type="curve" smooth="yes"/>
      <point x="380" y="-160"/>
      <point x="331" y="-209"/>
      <point x="253" y="-209" type="curve" smooth="yes"/>
      <point x="174" y="-209"/>
      <point x="143" y="-171"/>
      <point x="143" y="-115" type="curve" smooth="yes"/>
      <point x="143" y="-67"/>
      <point x="170" y="-20"/>
      <point x="199" y="-11" type="curve"/>
      <point x="154" y="-4" type="line"/>
      <point x="83" y="-30"/>
      <point x="37" y="-70"/>
      <point x="37" y="-127" type="curve" smooth="yes"/>
      <point x="37" y="-203"/>
      <point x="113" y="-245"/>
      <point x="241" y="-245" type="curve" smooth="yes"/>
      <point x="400" y="-245"/>
      <point x="503" y="-172"/>
      <point x="503" y="-43" type="curve" smooth="yes"/>
      <point x="503" y="69"/>
      <point x="426" y="110"/>
      <point x="304" y="110" type="curve" smooth="yes"/>
      <point x="216" y="110" type="line" smooth="yes"/>
      <point x="180" y="110"/>
      <point x="157" y="118"/>
      <point x="157" y="140" type="curve" smooth="yes"/>
      <point x="157" y="153"/>
      <point x="165" y="167"/>
      <point x="176" y="177" type="curve"/>
      <point x="134" y="192" type="line"/>
    </contour>
    <contour>
      <point x="294" y="400"/>
      <point x="309" y="371"/>
      <point x="309" y="300" type="curve" smooth="yes"/>
      <point x="309" y="229"/>
      <point x="294" y="201"/>
      <point x="250" y="201" type="curve" smooth="yes"/>
      <point x="209" y="201"/>
      <point x="195" y="226"/>
      <point x="195" y="298" type="curve" smooth="yes"/>
      <point x="195" y="375"/>
      <point x="211" y="400"/>
      <point x="251" y="400" type="curve" smooth="yes"/>
    </contour>
    <contour>
      <point x="131" y="437"/>
      <point x="46" y="390"/>
      <point x="46" y="300" type="curve" smooth="yes"/>
      <point x="46" y="201"/>
      <point x="150" y="168"/>
      <point x="254" y="168" type="curve" smooth="yes"/>
      <point x="376" y="168"/>
      <point x="458" y="213"/>
      <point x="458" y="304" type="curve" smooth="yes"/>
      <point x="458" y="405"/>
      <point x="357" y="437"/>
      <point x="255" y="437" type="curve" smooth="yes"/>
    </contour>
    <contour>
      <point x="399" y="512"/>
      <point x="359" y="467"/>
      <point x="328" y="422" type="curve"/>
      <point x="360" y="411" type="line"/>
      <point x="372" y="432"/>
      <point x="396" y="450"/>
      <point x="416" y="450" type="curve" smooth="yes"/>
      <point x="446" y="450"/>
      <point x="438" y="410"/>
      <point x="481" y="410" type="curve" smooth="yes"/>
      <point x="517" y="410"/>
      <point x="527" y="438"/>
      <point x="527" y="458" type="curve" smooth="yes"/>
      <point x="527" y="480"/>
      <point x="514" y="512"/>
      <point x="461" y="512" type="curve" smooth="yes"/>
    </contour>
    <contour>
      <point x="256" y="427" type="move" name="top"/>
    </contour>
  </outline>
</glyph>
<glyph name="i" format="1">
  <advance width="265"/>
  <unicode hex="0069"/>
  <outline>
    <contour>
      <point x="16" y="427" type="line"/>
      <point x="16" y="391" type="line"/>
      <point x="48" y="393" type="line"/>
      <point x="56" y="391"/>
      <point x="60" y="384"/>
      <point x="60" y="373" type="curve" smooth="yes"/>
      <point x="60" y="53" type="line" smooth="yes"/>
      <point x="60" y="40"/>
      <point x="56" y="33"/>
      <point x="47" y="34" type="curve"/>
      <point x="15" y="36" type="line"/>
      <point x="15" y="0" type="line"/>
      <point x="250" y="0" type="line"/>
      <point x="250" y="36" type="line"/>
      <point x="219" y="34" type="line"/>
      <point x="210" y="33"/>
      <point x="206" y="40"/>
      <point x="206" y="53" type="curve" smooth="yes"/>
      <point x="206" y="427" type="line"/>
    </contour>
    <contour>
      <point x="82" y="662"/>
      <point x="47" y="636"/>
      <point x="47" y="595" type="curve" smooth="yes"/>
      <point x="47" y="552"/>
      <point x="82" y="527"/>
      <point x="131" y="527" type="curve" smooth="yes"/>
      <point x="181" y="527"/>
      <point x="216" y="552"/>
      <point x="216" y="595" type="curve" smooth="yes"/>
      <point x="216" y="636"/>
      <point x="181" y="662"/>
      <point x="131" y="662" type="curve" smooth="yes"/>
    </contour>
    <contour>
      <point x="220" y="13" type="move" name="ogonek"/>
    </contour>
  </outline>
</glyph>
<glyph name="j" format="1">
  <advance width="266"/>
  <unicode hex="006A"/>
  <outline>
    <contour>
      <point x="16" y="427" type="line"/>
      <point x="16" y="391" type="line"/>
      <point x="47" y="393" type="line" smooth="yes"/>
      <point x="56" y="394"/>
      <point x="60" y="384"/>
      <point x="60" y="373" type="curve" smooth="yes"/>
      <point x="60" y="-29" type="line" smooth="yes"/>
      <point x="60" y="-113"/>
      <point x="72" y="-137"/>
      <point x="72" y="-168" type="curve" smooth="yes"/>
      <point x="72" y="-184"/>
      <point x="64" y="-206"/>
      <point x="47" y="-206" type="curve" smooth="yes"/>
      <point x="35" y="-206"/>
      <point x="28" y="-198"/>
      <point x="28" y="-181" type="curve" smooth="yes"/>
      <point x="28" y="-172"/>
      <point x="34" y="-160"/>
      <point x="34" y="-150" type="curve" smooth="yes"/>
      <point x="34" y="-106"/>
      <point x="-11" y="-100"/>
      <point x="-27" y="-100" type="curve" smooth="yes"/>
      <point x="-68" y="-100"/>
      <point x="-95" y="-125"/>
      <point x="-95" y="-163" type="curve" smooth="yes"/>
      <point x="-95" y="-211"/>
      <point x="-46" y="-243"/>
      <point x="43" y="-243" type="curve" smooth="yes"/>
      <point x="150" y="-243"/>
      <point x="206" y="-172"/>
      <point x="206" y="-14" type="curve" smooth="yes"/>
      <point x="206" y="427" type="line"/>
    </contour>
    <contour>
      <point x="82" y="662"/>
      <point x="47" y="636"/>
      <point x="47" y="595" type="curve" smooth="yes"/>
      <point x="47" y="552"/>
      <point x="82" y="527"/>
      <point x="131" y="527" type="curve" smooth="yes"/>
      <point x="181" y="527"/>
      <point x="216" y="552"/>
      <point x="216" y="595" type="curve" smooth="yes"/>
      <point x="216" y="636"/>
      <point x="181" y="662"/>
      <point x="131" y="662" type="curve" smooth="yes"/>
    </contour>
  </outline>
</glyph>
<glyph name="n" format="1">
  <advance width="544"/>
  <unicode hex="006E"/>
  <outline>
    <contour>
      <point x="281" y="437"/>
      <point x="228" y="392"/>
      <point x="200" y="322" type="curve"/>
      <point x="206" y="190" type="line"/>
      <point x="206" y="322"/>
      <point x="263" y="385"/>
      <point x="304" y="385" type="curve" smooth="yes"/>
      <point x="341" y="385"/>
      <point x="345" y="354"/>
      <point x="345" y="300" type="curve" smooth="yes"/>
      <point x="345" y="53" type="line" smooth="yes"/>
      <point x="345" y="42"/>
      <point x="341" y="36"/>
      <point x="332" y="34" type="curve"/>
      <point x="296" y="36" type="line"/>
      <point x="296" y="0" type="line"/>
      <point x="536" y="0" type="line"/>
      <point x="536" y="36" type="line"/>
      <point x="504" y="34" type="line"/>
      <point x="495" y="34"/>
      <point x="491" y="40"/>
      <point x="491" y="53" type="curve" smooth="yes"/>
      <point x="491" y="293" type="line" smooth="yes"/>
      <point x="491" y="392"/>
      <point x="452" y="437"/>
      <point x="362" y="437" type="curve" smooth="yes"/>
    </contour>
    <contour>
      <point x="15" y="427" type="line"/>
      <point x="15" y="391" type="line"/>
      <point x="47" y="393" type="line"/>
      <point x="56" y="391"/>
      <point x="60" y="384"/>
      <point x="60" y="373" type="curve" smooth="yes"/>
      <point x="60" y="53" type="line" smooth="yes"/>
      <point x="60" y="42"/>
      <point x="56" y="36"/>
      <point x="47" y="34" type="curve"/>
      <point x="15" y="36" type="line"/>
      <point x="15" y="0" type="line"/>
      <point x="255" y="0" type="line"/>
      <point x="255" y="36" type="line"/>
      <point x="219" y="34" type="line"/>
      <point x="210" y="34"/>
      <point x="206" y="40"/>
      <point x="206" y="53" type="curve"/>
      <point x="206" y="392" type="line"/>
      <point x="206" y="407"/>
      <point x="208" y="418"/>
      <point x="211" y="427" type="curve"/>
    </contour>
    <contour>
      <point x="277" y="427" type="move" name="top"/>
    </contour>
    <contour>
      <point x="277" y="0" type="move" name="bottom"/>
    </contour>
  </outline>
</glyph>
<glyph name="q" format="1">
  <advance width="520"/>
  <unicode hex="0071"/>
  <outline>
    <contour>
      <point x="83" y="437"/>
      <point x="20" y="358"/>
      <point x="20" y="213" type="curve" smooth="yes"/>
      <point x="20" y="71"/>
      <point x="81" y="-10"/>
      <point x="191" y="-10" type="curve" smooth="yes"/>
      <point x="270" y="-10"/>
      <point x="311" y="31"/>
      <point x="324" y="62" type="curve"/>
      <point x="324" y="-185" type="line" smooth="yes"/>
      <point x="324" y="-197"/>
      <point x="320" y="-203"/>
      <point x="311" y="-204" type="curve"/>
      <point x="255" y="-204" type="line"/>
      <point x="255" y="-239" type="line"/>
      <point x="510" y="-239" type="line"/>
      <point x="510" y="-204" type="line"/>
      <point x="483" y="-204" type="line"/>
      <point x="474" y="-205"/>
      <point x="470" y="-198"/>
      <point x="470" y="-185" type="curve" smooth="yes"/>
      <point x="470" y="427" type="line"/>
      <point x="387" y="427" type="line"/>
      <point x="387" y="381"/>
      <point x="369" y="368"/>
      <point x="350" y="368" type="curve" smooth="yes"/>
      <point x="334" y="368"/>
      <point x="329" y="378"/>
      <point x="326" y="382" type="curve" smooth="yes"/>
      <point x="297" y="421"/>
      <point x="255" y="437"/>
      <point x="201" y="437" type="curve" smooth="yes"/>
    </contour>
    <contour>
      <point x="307" y="385"/>
      <point x="322" y="310"/>
      <point x="322" y="233" type="curve" smooth="yes"/>
      <point x="322" y="188" type="line" smooth="yes"/>
      <point x="322" y="131"/>
      <point x="304" y="42"/>
      <point x="241" y="42" type="curve" smooth="yes"/>
      <point x="196" y="42"/>
      <point x="176" y="87"/>
      <point x="176" y="222" type="curve" smooth="yes"/>
      <point x="176" y="335"/>
      <point x="190" y="385"/>
      <point x="243" y="385" type="curve" smooth="yes"/>
    </contour>
  </outline>
</glyph>
<glyph name="r" format="1">
  <advance width="431"/>
  <unicode hex="0072"/>
  <outline>
    <contour>
      <point x="206" y="381" type="line" smooth="yes"/>
      <point x="206" y="397"/>
      <point x="209" y="419"/>
      <point x="212" y="427" type="curve"/>
      <point x="16" y="427" type="line"/>
      <point x="16" y="391" type="line"/>
      <point x="47" y="393" type="line"/>
      <point x="56" y="393"/>
      <point x="60" y="386"/>
      <point x="60" y="373" type="curve" smooth="yes"/>
      <point x="60" y="53" type="line" smooth="yes"/>
      <point x="60" y="40"/>
      <point x="56" y="34"/>
      <point x="47" y="34" type="curve"/>
      <point x="20" y="36" type="line"/>
      <point x="20" y="0" type="line"/>
      <point x="290" y="0" type="line"/>
      <point x="290" y="36" type="line"/>
      <point x="219" y="34" type="line" smooth="yes"/>
      <point x="210" y="34"/>
      <point x="206" y="40"/>
      <point x="206" y="53" type="curve" smooth="yes"/>
    </contour>
    <contour>
      <point x="206" y="193" type="line"/>
      <point x="206" y="271"/>
      <point x="237" y="384"/>
      <point x="291" y="384" type="curve" smooth="yes"/>
      <point x="305" y="384"/>
      <point x="309" y="373"/>
      <point x="309" y="362" type="curve" smooth="yes"/>
      <point x="309" y="348"/>
      <point x="302" y="336"/>
      <point x="302" y="322" type="curve" smooth="yes"/>
      <point x="302" y="292"/>
      <point x="333" y="278"/>
      <point x="362" y="278" type="curve" smooth="yes"/>
      <point x="395" y="278"/>
      <point x="427" y="297"/>
      <point x="427" y="343" type="curve" smooth="yes"/>
      <point x="427" y="400"/>
      <point x="381" y="437"/>
      <point x="324" y="437" type="curve" smooth="yes"/>
      <point x="269" y="437"/>
      <point x="223" y="403"/>
      <point x="200" y="317" type="curve"/>
    </contour>
    <contour>
      <point x="141" y="427" type="move" name="top"/>
    </contour>
    <contour>
      <point x="144" y="0" type="move" name="bottom"/>
    </contour>
  </outline>
</glyph>
<glyph name="s" format="1">
  <advance width="416"/>
  <unicode hex="0073"/>
  <outline>
    <contour>
      <point x="38" y="14"/>
      <point x="49" y="16"/>
      <point x="63" y="16" type="curve" smooth="yes"/>
      <point x="70" y="16"/>
      <point x="80" y="15"/>
      <point x="92" y="12" type="curve" smooth="yes"/>
      <point x="157" y="-5"/>
      <point x="181" y="-10"/>
      <point x="214" y="-10" type="curve" smooth="yes"/>
      <point x="319" y="-10"/>
      <point x="392" y="45"/>
      <point x="392" y="144" type="curve" smooth="yes"/>
      <point x="392" y="209"/>
      <point x="371" y="262"/>
      <point x="263" y="288" type="curve" smooth="yes"/>
      <point x="203" y="303" type="line" smooth="yes"/>
      <point x="169" y="311"/>
      <point x="151" y="329"/>
      <point x="151" y="352" type="curve" smooth="yes"/>
      <point x="151" y="379"/>
      <point x="176" y="400"/>
      <point x="215" y="400" type="curve" smooth="yes"/>
      <point x="291" y="400"/>
      <point x="332" y="354"/>
      <point x="332" y="309" type="curve"/>
      <point x="364" y="309" type="line"/>
      <point x="370" y="423" type="line"/>
      <point x="361" y="418"/>
      <point x="349" y="415"/>
      <point x="340" y="415" type="curve" smooth="yes"/>
      <point x="303" y="415"/>
      <point x="265" y="437"/>
      <point x="206" y="437" type="curve" smooth="yes"/>
      <point x="97" y="437"/>
      <point x="38" y="376"/>
      <point x="38" y="292" type="curve" smooth="yes"/>
      <point x="38" y="222"/>
      <point x="72" y="176"/>
      <point x="161" y="152" type="curve" smooth="yes"/>
      <point x="224" y="135" type="line" smooth="yes"/>
      <point x="271" y="124"/>
      <point x="286" y="108"/>
      <point x="286" y="81" type="curve" smooth="yes"/>
      <point x="286" y="47"/>
      <point x="259" y="27"/>
      <point x="219" y="27" type="curve" smooth="yes"/>
      <point x="140" y="27"/>
      <point x="73" y="75"/>
      <point x="73" y="144" type="curve"/>
      <point x="37" y="142" type="line"/>
      <point x="32" y="10" type="line"/>
    </contour>
    <contour>
      <point x="223" y="427" type="move" name="top"/>
    </contour>
    <contour>
      <point x="221" y="0" type="move" name="bottom"/>
    </contour>
  </outline>
</glyph>
<glyph name="t" format="1">
  <advance width="329"/>
  <unicode hex="0074"/>
  <outline>
    <contour>
      <point x="123" y="529" type="line"/>
      <point x="102" y="441"/>
      <point x="80" y="427"/>
      <point x="5" y="427" type="curve"/>
      <point x="5" y="392" type="line"/>
      <point x="65" y="392" type="line"/>
      <point x="65" y="87" type="line" smooth="yes"/>
      <point x="65" y="15"/>
      <point x="129" y="-10"/>
      <point x="208" y="-10" type="curve" smooth="yes"/>
      <point x="258" y="-10"/>
      <point x="300" y="5"/>
      <point x="320" y="52" type="curve"/>
      <point x="290" y="68" type="line"/>
      <point x="279" y="41"/>
      <point x="260" y="30"/>
      <point x="246" y="30" type="curve" smooth="yes"/>
      <point x="226" y="30"/>
      <point x="211" y="38"/>
      <point x="211" y="87" type="curve" smooth="yes"/>
      <point x="211" y="392" type="line"/>
      <point x="306" y="392" type="line"/>
      <point x="306" y="427" type="line"/>
      <point x="211" y="427" type="line"/>
      <point x="211" y="529" type="line"/>
    </contour>
    <contour>
      <point x="169" y="213" type="move" name="center"/>
    </contour>
    <contour>
      <point x="169" y="0" type="move" name="bottom"/>
    </contour>
    <contour>
      <point x="257" y="598" type="move" name="topright"/>
    </contour>
  </outline>
</glyph>
<glyph name="w" format="1">
  <advance width="748"/>
  <unicode hex="0077"/>
  <outline>
    <contour>
      <point x="352" y="289" type="line"/>
      <point x="479" y="-10" type="line"/>
      <point x="534" y="-10" type="line"/>
      <point x="682" y="376" type="line" smooth="yes"/>
      <point x="687" y="388"/>
      <point x="695" y="393"/>
      <point x="703" y="393" type="curve" smooth="yes"/>
      <point x="739" y="391" type="line"/>
      <point x="739" y="427" type="line"/>
      <point x="575" y="427" type="line"/>
      <point x="575" y="391" type="line"/>
      <point x="628" y="393" type="line" smooth="yes"/>
      <point x="643" y="394"/>
      <point x="642" y="384"/>
      <point x="639" y="376" type="curve" smooth="yes"/>
      <point x="547" y="124" type="line"/>
      <point x="577" y="124" type="line"/>
      <point x="447" y="432" type="line"/>
      <point x="391" y="432" type="line"/>
      <point x="260" y="124" type="line"/>
      <point x="284" y="124" type="line"/>
      <point x="196" y="373" type="line" smooth="yes"/>
      <point x="192" y="384"/>
      <point x="196" y="394"/>
      <point x="211" y="393" type="curve" smooth="yes"/>
      <point x="255" y="391" type="line"/>
      <point x="255" y="427" type="line"/>
      <point x="-13" y="427" type="line"/>
      <point x="-13" y="391" type="line"/>
      <point x="28" y="393" type="line" smooth="yes"/>
      <point x="36" y="393"/>
      <point x="42" y="387"/>
      <point x="45" y="380" type="curve" smooth="yes"/>
      <point x="185" y="-10" type="line"/>
      <point x="238" y="-10" type="line"/>
      <point x="370" y="289" type="line"/>
    </contour>
    <contour>
      <point x="417" y="427" type="move" name="top"/>
    </contour>
  </outline>
</glyph>
<glyph name="x" format="1">
  <advance width="535"/>
  <unicode hex="0078"/>
  <outline>
    <contour>
      <point x="191" y="223" type="line"/>
      <point x="66" y="47" type="line" smooth="yes"/>
      <point x="60" y="38"/>
      <point x="52" y="34"/>
      <point x="45" y="34" type="curve" smooth="yes"/>
      <point x="7" y="36" type="line"/>
      <point x="7" y="0" type="line"/>
      <point x="164" y="0" type="line"/>
      <point x="164" y="36" type="line"/>
      <point x="121" y="34" type="line" smooth="yes"/>
      <point x="112" y="34"/>
      <point x="108" y="37"/>
      <point x="108" y="44" type="curve" smooth="yes"/>
      <point x="108" y="45"/>
      <point x="109" y="47"/>
      <point x="110" y="48" type="curve" smooth="yes"/>
      <point x="218" y="199" type="line"/>
    </contour>
    <contour>
      <point x="333" y="204" type="line"/>
      <point x="468" y="378" type="line" smooth="yes"/>
      <point x="475" y="387"/>
      <point x="486" y="393"/>
      <point x="493" y="393" type="curve" smooth="yes"/>
      <point x="530" y="391" type="line"/>
      <point x="530" y="427" type="line"/>
      <point x="376" y="427" type="line"/>
      <point x="376" y="391" type="line"/>
      <point x="419" y="393" type="line" smooth="yes"/>
      <point x="430" y="393"/>
      <point x="430" y="383"/>
      <point x="425" y="376" type="curve" smooth="yes"/>
      <point x="306" y="227" type="line"/>
    </contour>
    <contour>
      <point x="293" y="47" type="line"/>
      <point x="297" y="42"/>
      <point x="295" y="32"/>
      <point x="286" y="33" type="curve" smooth="yes"/>
      <point x="237" y="36" type="line"/>
      <point x="237" y="0" type="line"/>
      <point x="523" y="0" type="line"/>
      <point x="523" y="36" type="line"/>
      <point x="484" y="34" type="line" smooth="yes"/>
      <point x="477" y="34"/>
      <point x="471" y="38"/>
      <point x="465" y="47" type="curve"/>
      <point x="230" y="380" type="line"/>
      <point x="223" y="388"/>
      <point x="231" y="393"/>
      <point x="239" y="393" type="curve" smooth="yes"/>
      <point x="285" y="391" type="line"/>
      <point x="285" y="427" type="line"/>
      <point x="5" y="427" type="line"/>
      <point x="5" y="391" type="line"/>
      <point x="39" y="393" type="line" smooth="yes"/>
      <point x="46" y="393"/>
      <point x="53" y="389"/>
      <point x="58" y="380" type="curve"/>
    </contour>
  </outline>
</glyph>
<glyph name="z" format="1">
  <advance width="443"/>
  <unicode hex="007A"/>
  <outline>
    <contour>
      <point x="251" y="422" type="line"/>
      <point x="34" y="28" type="line"/>
      <point x="34" y="-2" type="line"/>
      <point x="46" y="-2"/>
      <point x="87" y="0"/>
      <point x="138" y="0" type="curve" smooth="yes"/>
      <point x="190" y="0" type="line"/>
      <point x="408" y="0" type="line"/>
      <point x="408" y="139" type="line"/>
      <point x="377" y="139" type="line"/>
      <point x="377" y="70"/>
      <point x="332" y="35"/>
      <point x="248" y="35" type="curve" smooth="yes"/>
      <point x="133" y="35" type="line"/>
      <point x="193" y="8" type="line"/>
      <point x="402" y="398" type="line"/>
      <point x="402" y="427" type="line"/>
      <point x="205" y="427" type="line"/>
      <point x="151" y="427" type="line" smooth="yes"/>
      <point x="100" y="427"/>
      <point x="59" y="429"/>
      <point x="55" y="429" type="curve"/>
      <point x="46" y="287" type="line"/>
      <point x="77" y="287" type="line"/>
      <point x="87" y="353"/>
      <point x="124" y="392"/>
      <point x="186" y="392" type="curve" smooth="yes"/>
      <point x="310" y="392" type="line"/>
    </contour>
    <contour>
      <point x="221" y="427" type="move" name="top"/>
    </contour>
  </outline>
</glyph>
<glyph name="braceleft" format="1">
  <advance width="280"/>
  <unicode hex="007B"/>
  <outline>
    <contour>
      <point x="65" y="239"/>
      <point x="72" y="232"/>
      <point x="72" y="176" type="curve" smooth="yes"/>
      <point x="72" y="-53" type="line" smooth="yes"/>
      <point x="72" y="-125"/>
      <point x="97" y="-146"/>
      <point x="201" y="-146" type="curve" smooth="yes"/>
      <point x="255" y="-146" type="line"/>
      <point x="255" y="-106" type="line"/>
      <point x="228" y="-106" type="line" smooth="yes"/>
      <point x="205" y="-106"/>
      <point x="199" y="-89"/>
      <point x="199" y="-60" type="curve" smooth="yes"/>
      <point x="199" y="176" type="line" smooth="yes"/>
      <point x="198" y="238"/>
      <point x="174" y="251"/>
      <point x="83" y="267" type="curve"/>
      <point x="174" y="280"/>
      <point x="200" y="296"/>
      <point x="199" y="358" type="curve" smooth="yes"/>
      <point x="199" y="589" type="line" smooth="yes"/>
      <point x="199" y="619"/>
      <point x="208" y="635"/>
      <point x="228" y="635" type="curve" smooth="yes"/>
      <point x="255" y="635" type="line"/>
      <point x="255" y="675" type="line"/>
      <point x="201" y="675" type="line" smooth="yes"/>
      <point x="100" y="675"/>
      <point x="72" y="654"/>
      <point x="72" y="582" type="curve" smooth="yes"/>
      <point x="72" y="358" type="line" smooth="yes"/>
      <point x="72" y="310"/>
      <point x="62" y="290"/>
      <point x="30" y="282" type="curve"/>
      <point x="30" y="252" type="line"/>
    </contour>
  </outline>
</glyph>
<glyph name="exclamdown" format="1">
  <advance width="291"/>
  <unicode hex="00A1"/>
  <outline>
    <contour>
      <point x="124" y="234"/>
      <point x="120" y="225"/>
      <point x="120" y="213" type="curve" smooth="yes"/>
      <point x="120" y="65"/>
      <point x="57" y="-91"/>
      <point x="57" y="-157" type="curve" smooth="yes"/>
      <point x="57" y="-206"/>
      <point x="81" y="-242"/>
      <point x="139" y="-242" type="curve" smooth="yes"/>
      <point x="192" y="-242"/>
      <point x="216" y="-206"/>
      <point x="216" y="-157" type="curve" smooth="yes"/>
      <point x="216" y="-96"/>
      <point x="153" y="64"/>
      <point x="153" y="213" type="curve" smooth="yes"/>
      <point x="153" y="225"/>
      <point x="149" y="234"/>
      <point x="136" y="234" type="curve" smooth="yes"/>
    </contour>
    <contour>
      <point x="77" y="445"/>
      <point x="35" y="410"/>
      <point x="35" y="364" type="curve" smooth="yes"/>
      <point x="35" y="320"/>
      <point x="77" y="284"/>
      <point x="136" y="284" type="curve" smooth="yes"/>
      <point x="195" y="284"/>
      <point x="236" y="320"/>
      <point x="236" y="364" type="curve" smooth="yes"/>
      <point x="236" y="410"/>
      <point x="195" y="445"/>
      <point x="136" y="445" type="curve" smooth="yes"/>
    </contour>
  </outline>
</glyph>
<glyph name="currency" format="1">
  <advance width="443"/>
  <unicode hex="00A4"/>
  <outline>
    <contour>
      <point x="124" y="395" type="line"/>
      <point x="71" y="448" type="line"/>
      <point x="38" y="415" type="line"/>
      <point x="91" y="362" type="line"/>
    </contour>
    <contour>
      <point x="93" y="335"/>
      <point x="151" y="393"/>
      <point x="222" y="393" type="curve" smooth="yes"/>
      <point x="293" y="393"/>
      <point x="351" y="335"/>
      <point x="351" y="265" type="curve" smooth="yes"/>
      <point x="351" y="194"/>
      <point x="293" y="136"/>
      <point x="222" y="136" type="curve" smooth="yes"/>
      <point x="151" y="136"/>
      <point x="93" y="194"/>
      <point x="93" y="265" type="curve" smooth="yes"/>
    </contour>
    <contour>
      <point x="92" y="167" type="line"/>
      <point x="37" y="112" type="line"/>
      <point x="70" y="79" type="line"/>
      <point x="125" y="134" type="line"/>
    </contour>
    <contour>
      <point x="353" y="361" type="line"/>
      <point x="407" y="414" type="line"/>
      <point x="374" y="447" type="line"/>
      <point x="321" y="394" type="line"/>
    </contour>
    <contour>
      <point x="319" y="133" type="line"/>
      <point x="373" y="78" type="line"/>
      <point x="406" y="111" type="line"/>
      <point x="352" y="166" type="line"/>
    </contour>
    <contour>
      <point x="127" y="94"/>
      <point x="222" y="94" type="curve" smooth="yes"/>
      <point x="312" y="94"/>
      <point x="393" y="164"/>
      <point x="393" y="265" type="curve" smooth="yes"/>
      <point x="393" y="356"/>
      <point x="319" y="435"/>
      <point x="222" y="435" type="curve" smooth="yes"/>
      <point x="132" y="435"/>
      <point x="52" y="364"/>
      <point x="52" y="265" type="curve" smooth="yes"/>
      <point x="52" y="173"/>
    </contour>
  </outline>
</glyph>
<glyph name="yen" format="1">
  <advance width="600"/>
  <unicode hex="00A5"/>
  <outline>
    <contour>
      <point x="391" y="302" type="line"/>
      <point x="518" y="302" type="line"/>
      <point x="518" y="341" type="line"/>
      <point x="391" y="341" type="line"/>
    </contour>
    <contour>
      <point x="198" y="341" type="line"/>
      <point x="88" y="341" type="line"/>
      <point x="88" y="302" type="line"/>
      <point x="198" y="302" type="line"/>
    </contour>
    <contour>
      <point x="518" y="192" type="line"/>
      <point x="518" y="231" type="line"/>
      <point x="88" y="231" type="line"/>
      <point x="88" y="192" type="line"/>
    </contour>
    <component base="Y"/>
  </outline>
</glyph>
<glyph name="ordfeminine" format="1">
  <advance width="341"/>
  <unicode hex="00AA"/>
  <outline>
    <contour>
      <point x="12" y="365"/>
      <point x="40" y="342"/>
      <point x="96" y="342" type="curve" smooth="yes"/>
      <point x="139" y="342"/>
      <point x="177" y="357"/>
      <point x="192" y="387" type="curve"/>
      <point x="189" y="350" type="line"/>
      <point x="329" y="350" type="line"/>
      <point x="329" y="384" type="line"/>
      <point x="304" y="383" type="line"/>
      <point x="300" y="383"/>
      <point x="298" y="385"/>
      <point x="298" y="390" type="curve" smooth="yes"/>
      <point x="298" y="527" type="line" smooth="yes"/>
      <point x="298" y="588"/>
      <point x="255" y="615"/>
      <point x="155" y="615" type="curve" smooth="yes"/>
      <point x="65" y="615"/>
      <point x="23" y="592"/>
      <point x="23" y="555" type="curve" smooth="yes"/>
      <point x="23" y="524"/>
      <point x="50" y="509"/>
      <point x="76" y="509" type="curve" smooth="yes"/>
      <point x="106" y="509"/>
      <point x="130" y="522"/>
      <point x="130" y="548" type="curve" smooth="yes"/>
      <point x="130" y="575"/>
      <point x="131" y="582"/>
      <point x="159" y="582" type="curve" smooth="yes"/>
      <point x="180" y="582"/>
      <point x="188" y="567"/>
      <point x="188" y="538" type="curve" smooth="yes"/>
      <point x="188" y="495" type="line"/>
      <point x="60" y="495"/>
      <point x="12" y="468"/>
      <point x="12" y="411" type="curve" smooth="yes"/>
    </contour>
    <contour>
      <point x="125" y="448"/>
      <point x="135" y="462"/>
      <point x="188" y="462" type="curve"/>
      <point x="188" y="449" type="line" smooth="yes"/>
      <point x="188" y="415"/>
      <point x="173" y="388"/>
      <point x="150" y="388" type="curve" smooth="yes"/>
      <point x="133" y="388"/>
      <point x="125" y="400"/>
      <point x="125" y="419" type="curve" smooth="yes"/>
    </contour>
  </outline>
</glyph>
<glyph name="twosuperior" format="1">
  <advance width="303"/>
  <unicode hex="00B2"/>
  <outline>
    <contour>
      <point x="259" y="487"/>
      <point x="246" y="474"/>
      <point x="218" y="474" type="curve" smooth="yes"/>
      <point x="46" y="474" type="line"/>
      <point x="41" y="466" type="line"/>
      <point x="161" y="500" type="line" smooth="yes"/>
      <point x="237" y="521"/>
      <point x="292" y="554"/>
      <point x="292" y="602" type="curve" smooth="yes"/>
      <point x="292" y="655"/>
      <point x="228" y="678"/>
      <point x="144" y="678" type="curve" smooth="yes"/>
      <point x="52" y="678"/>
      <point x="9" y="649"/>
      <point x="9" y="609" type="curve" smooth="yes"/>
      <point x="9" y="584"/>
      <point x="25" y="560"/>
      <point x="67" y="560" type="curve" smooth="yes"/>
      <point x="96" y="560"/>
      <point x="123" y="573"/>
      <point x="123" y="599" type="curve" smooth="yes"/>
      <point x="123" y="612"/>
      <point x="117" y="619"/>
      <point x="117" y="632" type="curve" smooth="yes"/>
      <point x="117" y="645"/>
      <point x="128" y="654"/>
      <point x="145" y="654" type="curve" smooth="yes"/>
      <point x="162" y="654"/>
      <point x="174" y="637"/>
      <point x="174" y="611" type="curve" smooth="yes"/>
      <point x="174" y="562"/>
      <point x="149" y="534"/>
      <point x="105" y="514" type="curve" smooth="yes"/>
      <point x="17" y="474" type="line"/>
      <point x="21" y="403" type="line"/>
      <point x="236" y="403" type="line" smooth="yes"/>
      <point x="249" y="403"/>
      <point x="272" y="402"/>
      <point x="276" y="401" type="curve"/>
      <point x="277" y="418"/>
      <point x="280" y="470"/>
      <point x="287" y="500" type="curve"/>
      <point x="261" y="500" type="line"/>
    </contour>
  </outline>
</glyph>
<glyph name="acute" format="1">
  <advance width="276"/>
  <unicode hex="00B4"/>
  <outline>
    <contour>
      <point x="255" y="628"/>
      <point x="208" y="653"/>
      <point x="184" y="653" type="curve" smooth="yes"/>
      <point x="169" y="653"/>
      <point x="165" y="647"/>
      <point x="148" y="628" type="curve" smooth="yes"/>
      <point x="53" y="524" type="line" smooth="yes"/>
      <point x="41" y="511"/>
      <point x="37" y="505"/>
      <point x="37" y="496" type="curve" smooth="yes"/>
      <point x="37" y="489"/>
      <point x="41" y="485"/>
      <point x="48" y="485" type="curve" smooth="yes"/>
      <point x="56" y="485"/>
      <point x="67" y="490"/>
      <point x="73" y="494" type="curve" smooth="yes"/>
      <point x="241" y="593" type="line" smooth="yes"/>
      <point x="251" y="599"/>
      <point x="255" y="605"/>
      <point x="255" y="612" type="curve" smooth="yes"/>
    </contour>
    <contour>
      <point x="104" y="420" type="move" name="_top"/>
    </contour>
  </outline>
</glyph>
<glyph name="micro" format="1">
  <advance width="541"/>
  <unicode hex="00B5"/>
  <outline>
    <contour>
      <point x="286" y="427" type="line"/>
      <point x="286" y="391" type="line"/>
      <point x="322" y="393" type="line"/>
      <point x="331" y="393"/>
      <point x="335" y="387"/>
      <point x="335" y="374" type="curve" smooth="yes"/>
      <point x="335" y="237" type="line" smooth="yes"/>
      <point x="335" y="105"/>
      <point x="282" y="42"/>
      <point x="244" y="42" type="curve" smooth="yes"/>
      <point x="210" y="42"/>
      <point x="206" y="73"/>
      <point x="206" y="127" type="curve" smooth="yes"/>
      <point x="206" y="427" type="line"/>
      <point x="15" y="427" type="line"/>
      <point x="15" y="391" type="line"/>
      <point x="47" y="393" type="line"/>
      <point x="56" y="393"/>
      <point x="60" y="387"/>
      <point x="60" y="374" type="curve" smooth="yes"/>
      <point x="60" y="-185" type="line" smooth="yes"/>
      <point x="60" y="-198"/>
      <point x="56" y="-204"/>
      <point x="47" y="-205" type="curve"/>
      <point x="19" y="-203" type="line"/>
      <point x="19" y="-239" type="line"/>
      <point x="281" y="-239" type="line"/>
      <point x="281" y="-203" type="line"/>
      <point x="219" y="-205" type="line" smooth="yes"/>
      <point x="207" y="-205"/>
      <point x="206" y="-192"/>
      <point x="206" y="-185" type="curve" smooth="yes"/>
      <point x="206" y="36" type="line"/>
      <point x="146" y="17" type="line"/>
      <point x="168" y="1"/>
      <point x="190" y="-6"/>
      <point x="211" y="-6" type="curve" smooth="yes"/>
      <point x="266" y="-6"/>
      <point x="313" y="43"/>
      <point x="335" y="91" type="curve"/>
      <point x="335" y="35" type="line" smooth="yes"/>
      <point x="335" y="20"/>
      <point x="333" y="9"/>
      <point x="330" y="0" type="curve"/>
      <point x="526" y="0" type="line"/>
      <point x="526" y="36" type="line"/>
      <point x="494" y="34" type="line"/>
      <point x="485" y="36"/>
      <point x="481" y="43"/>
      <point x="481" y="54" type="curve" smooth="yes"/>
      <point x="481" y="427" type="line"/>
    </contour>
  </outline>
</glyph>
<glyph name="paragraph" format="1">
  <advance width="499"/>
  <unicode hex="00B6"/>
  <outline>
    <contour>
      <point x="30" y="316"/>
      <point x="104" y="258"/>
      <point x="228" y="258" type="curve"/>
      <point x="228" y="-269" type="line"/>
      <point x="273" y="-269" type="line"/>
      <point x="273" y="518" type="line" smooth="yes"/>
      <point x="273" y="545"/>
      <point x="288" y="556"/>
      <point x="311" y="556" type="curve" smooth="yes"/>
      <point x="342" y="556" type="line"/>
      <point x="342" y="-269" type="line"/>
      <point x="387" y="-269" type="line"/>
      <point x="387" y="556" type="line"/>
      <point x="478" y="556" type="line"/>
      <point x="478" y="597" type="line"/>
      <point x="228" y="597" type="line" smooth="yes"/>
      <point x="104" y="597"/>
      <point x="30" y="533"/>
      <point x="30" y="427" type="curve" smooth="yes"/>
    </contour>
  </outline>
</glyph>
<glyph name="cedilla" format="1">
  <advance width="243"/>
  <unicode hex="00B8"/>
  <outline>
    <contour>
      <point x="48" y="-213"/>
      <point x="77" y="-214"/>
      <point x="94" y="-214" type="curve" smooth="yes"/>
      <point x="145" y="-214"/>
      <point x="218" y="-188"/>
      <point x="218" y="-122" type="curve" smooth="yes"/>
      <point x="218" y="-57"/>
      <point x="118" y="-79"/>
      <point x="118" y="-52" type="curve" smooth="yes"/>
      <point x="118" y="-47"/>
      <point x="120" y="-40"/>
      <point x="124" y="-33" type="curve" smooth="yes"/>
      <point x="145" y="0" type="line"/>
      <point x="102" y="0" type="line"/>
      <point x="61" y="-52" type="line" smooth="yes"/>
      <point x="57" y="-56"/>
      <point x="55" y="-60"/>
      <point x="55" y="-65" type="curve" smooth="yes"/>
      <point x="55" y="-70"/>
      <point x="59" y="-75"/>
      <point x="66" y="-80" type="curve" smooth="yes"/>
      <point x="89" y="-94" type="line" smooth="yes"/>
      <point x="106" y="-103"/>
      <point x="123" y="-116"/>
      <point x="123" y="-133" type="curve" smooth="yes"/>
      <point x="123" y="-155"/>
      <point x="99" y="-176"/>
      <point x="75" y="-176" type="curve" smooth="yes"/>
      <point x="60" y="-176"/>
      <point x="48" y="-172"/>
      <point x="40" y="-163" type="curve"/>
      <point x="25" y="-198" type="line"/>
    </contour>
    <contour>
      <point x="120" y="0" type="move" name="_bottom"/>
    </contour>
  </outline>
</glyph>
<glyph name="onesuperior" format="1">
  <advance width="234"/>
  <unicode hex="00B9"/>
  <outline>
    <contour>
      <point x="166" y="682" type="line"/>
      <point x="145" y="672"/>
      <point x="75" y="642"/>
      <point x="14" y="634" type="curve"/>
      <point x="21" y="601" type="line"/>
      <point x="60" y="608" type="line" smooth="yes"/>
      <point x="66" y="609"/>
      <point x="70" y="606"/>
      <point x="70" y="600" type="curve" smooth="yes"/>
      <point x="70" y="439" type="line" smooth="yes"/>
      <point x="70" y="433"/>
      <point x="67" y="430"/>
      <point x="60" y="430" type="curve"/>
      <point x="25" y="431" type="line"/>
      <point x="25" y="403" type="line"/>
      <point x="222" y="403" type="line"/>
      <point x="222" y="431" type="line"/>
      <point x="197" y="430" type="line"/>
      <point x="191" y="430"/>
      <point x="188" y="433"/>
      <point x="188" y="439" type="curve" smooth="yes"/>
      <point x="188" y="682" type="line"/>
    </contour>
  </outline>
</glyph>
<glyph name="onequarter" format="1">
  <advance width="587"/>
  <unicode hex="00BC"/>
  <outline>
    <contour>
      <point x="402" y="59" type="line"/>
      <point x="402" y="37" type="line" smooth="yes"/>
      <point x="402" y="30"/>
      <point x="399" y="27"/>
      <point x="392" y="27" type="curve" smooth="yes"/>
      <point x="355" y="28" type="line"/>
      <point x="355" y="0" type="line"/>
      <point x="548" y="0" type="line"/>
      <point x="548" y="28" type="line"/>
      <point x="530" y="27" type="line"/>
      <point x="523" y="27"/>
      <point x="520" y="30"/>
      <point x="520" y="37" type="curve" smooth="yes"/>
      <point x="520" y="59" type="line"/>
      <point x="557" y="59" type="line"/>
      <point x="557" y="102" type="line"/>
      <point x="520" y="102" type="line"/>
      <point x="520" y="274" type="line"/>
      <point x="454" y="274" type="line"/>
      <point x="274" y="98" type="line"/>
      <point x="274" y="59" type="line"/>
    </contour>
    <contour>
      <point x="411" y="188" type="line"/>
      <point x="402" y="197" type="line"/>
      <point x="402" y="102" type="line"/>
      <point x="302" y="102" type="line"/>
      <point x="308" y="90" type="line"/>
    </contour>
    <component base="fraction" xOffset="216"/>
    <component base="onesuperior" xOffset="29" yOffset="-71"/>
  </outline>
</glyph>
<glyph name="questiondown" format="1">
  <advance width="417"/>
  <unicode hex="00BF"/>
  <outline>
    <contour>
      <point x="167" y="192" type="line"/>
      <point x="196" y="174"/>
      <point x="210" y="146"/>
      <point x="210" y="122" type="curve" smooth="yes"/>
      <point x="210" y="33"/>
      <point x="16" y="-5"/>
      <point x="16" y="-125" type="curve" smooth="yes"/>
      <point x="16" y="-196"/>
      <point x="85" y="-235"/>
      <point x="218" y="-235" type="curve" smooth="yes"/>
      <point x="326" y="-235"/>
      <point x="407" y="-209"/>
      <point x="407" y="-144" type="curve" smooth="yes"/>
      <point x="407" y="-109"/>
      <point x="384" y="-75"/>
      <point x="333" y="-75" type="curve" smooth="yes"/>
      <point x="299" y="-75"/>
      <point x="264" y="-91"/>
      <point x="264" y="-127" type="curve" smooth="yes"/>
      <point x="264" y="-144"/>
      <point x="271" y="-156"/>
      <point x="271" y="-169" type="curve" smooth="yes"/>
      <point x="271" y="-187"/>
      <point x="257" y="-198"/>
      <point x="235" y="-198" type="curve" smooth="yes"/>
      <point x="200" y="-198"/>
      <point x="173" y="-171"/>
      <point x="173" y="-127" type="curve" smooth="yes"/>
      <point x="173" y="-30"/>
      <point x="301" y="9"/>
      <point x="301" y="96" type="curve" smooth="yes"/>
      <point x="301" y="162"/>
      <point x="228" y="209"/>
      <point x="185" y="220" type="curve"/>
    </contour>
    <contour>
      <point x="160" y="445"/>
      <point x="118" y="410"/>
      <point x="118" y="364" type="curve" smooth="yes"/>
      <point x="118" y="320"/>
      <point x="160" y="284"/>
      <point x="219" y="284" type="curve" smooth="yes"/>
      <point x="278" y="284"/>
      <point x="319" y="320"/>
      <point x="319" y="364" type="curve" smooth="yes"/>
      <point x="319" y="410"/>
      <point x="278" y="445"/>
      <point x="219" y="445" type="curve" smooth="yes"/>
    </contour>
  </outline>
</glyph>
<glyph name="Thorn" format="1">
  <advance width="549"/>
  <unicode hex="00DE"/>
  <outline>
    <contour>
      <point x="310" y="0" type="line"/>
      <point x="310" y="29" type="line"/>
      <point x="261" y="27" type="line" smooth="yes"/>
      <point x="246" y="26"/>
      <point x="241" y="36"/>
      <point x="241" y="49" type="curve" smooth="yes"/>
      <point x="241" y="162" type="line"/>
      <point x="334" y="162" type="line" smooth="yes"/>
      <point x="457" y="162"/>
      <point x="529" y="220"/>
      <point x="529" y="334" type="curve" smooth="yes"/>
      <point x="529" y="456"/>
      <point x="461" y="496"/>
      <point x="313" y="496" type="curve" smooth="yes"/>
      <point x="241" y="496" type="line"/>
      <point x="241" y="548" type="line" smooth="yes"/>
      <point x="241" y="559"/>
      <point x="249" y="569"/>
      <point x="261" y="569" type="curve" smooth="yes"/>
      <point x="310" y="567" type="line"/>
      <point x="310" y="597" type="line"/>
      <point x="35" y="597" type="line"/>
      <point x="35" y="567" type="line"/>
      <point x="69" y="569" type="line" smooth="yes"/>
      <point x="82" y="570"/>
      <point x="88" y="559"/>
      <point x="88" y="548" type="curve" smooth="yes"/>
      <point x="88" y="49" type="line" smooth="yes"/>
      <point x="88" y="36"/>
      <point x="82" y="26"/>
      <point x="69" y="27" type="curve" smooth="yes"/>
      <point x="35" y="29" type="line"/>
      <point x="35" y="0" type="line"/>
    </contour>
    <contour>
      <point x="241" y="471" type="line"/>
      <point x="277" y="471" type="line" smooth="yes"/>
      <point x="338" y="471"/>
      <point x="373" y="425"/>
      <point x="373" y="334" type="curve" smooth="yes"/>
      <point x="373" y="242"/>
      <point x="337" y="188"/>
      <point x="293" y="188" type="curve" smooth="yes"/>
      <point x="254" y="188" type="line" smooth="yes"/>
      <point x="247" y="188"/>
      <point x="241" y="194"/>
      <point x="241" y="201" type="curve" smooth="yes"/>
    </contour>
  </outline>
</glyph>
<glyph name="ae" format="1">
  <advance width="722"/>
  <unicode hex="00E6"/>
  <outline>
    <contour>
      <point x="443.543" y="437"/>
      <point x="398.546" y="428.652"/>
      <point x="362.595" y="410.711" type="curve"/>
      <point x="329.898" y="428.917"/>
      <point x="284.019" y="437"/>
      <point x="227" y="437" type="curve" smooth="yes"/>
      <point x="108" y="437"/>
      <point x="35" y="392"/>
      <point x="35" y="327" type="curve" smooth="yes"/>
      <point x="35" y="291"/>
      <point x="63" y="265"/>
      <point x="104" y="265" type="curve" smooth="yes"/>
      <point x="137" y="265"/>
      <point x="165" y="283"/>
      <point x="165" y="315" type="curve" smooth="yes"/>
      <point x="165" y="331"/>
      <point x="156" y="340"/>
      <point x="156" y="359" type="curve" smooth="yes"/>
      <point x="156" y="376"/>
      <point x="168" y="400"/>
      <point x="216" y="400" type="curve" smooth="yes"/>
      <point x="274" y="400"/>
      <point x="274" y="356"/>
      <point x="274" y="323" type="curve" smooth="yes"/>
      <point x="274" y="242.068" type="line"/>
      <point x="89.4725" y="242.215"/>
      <point x="8" y="200.029"/>
      <point x="8" y="108" type="curve" smooth="yes"/>
      <point x="8" y="32"/>
      <point x="53" y="-5"/>
      <point x="136" y="-5" type="curve" smooth="yes"/>
      <point x="202.926" y="-5"/>
      <point x="259.219" y="17.0852"/>
      <point x="295.261" y="73.8307" type="curve"/>
      <point x="331.141" y="16.8043"/>
      <point x="398.201" y="-10"/>
      <point x="501" y="-10" type="curve" smooth="yes"/>
      <point x="603" y="-10"/>
      <point x="671" y="28"/>
      <point x="703" y="93" type="curve"/>
      <point x="675" y="112" type="line"/>
      <point x="656" y="74"/>
      <point x="612" y="33"/>
      <point x="545" y="33" type="curve" smooth="yes"/>
      <point x="461" y="34"/>
      <point x="419" y="95"/>
      <point x="419" y="207" type="curve"/>
      <point x="707" y="207" type="line"/>
      <point x="707" y="376"/>
      <point x="631" y="437"/>
      <point x="498" y="437" type="curve" smooth="yes"/>
    </contour>
    <contour>
      <point x="274" y="149.101" type="line"/>
      <point x="267.208" y="96.3619"/>
      <point x="237.94" y="61"/>
      <point x="202" y="61" type="curve" smooth="yes"/>
      <point x="175" y="61"/>
      <point x="159" y="79"/>
      <point x="159" y="121" type="curve" smooth="yes"/>
      <point x="159" y="174.47"/>
      <point x="191.821" y="205.147"/>
      <point x="274" y="205.199" type="curve"/>
    </contour>
    <contour>
      <point x="540" y="400"/>
      <point x="557" y="358"/>
      <point x="557" y="275" type="curve" smooth="yes"/>
      <point x="557" y="248"/>
      <point x="549" y="242"/>
      <point x="537" y="242" type="curve" smooth="yes"/>
      <point x="420" y="242" type="line"/>
      <point x="420" y="328"/>
      <point x="440" y="400"/>
      <point x="494" y="400" type="curve" smooth="yes"/>
    </contour>
    <contour>
      <point x="361" y="427" type="move" name="top"/>
    </contour>
  </outline>
</glyph>
<glyph name="eth" format="1">
  <advance width="512"/>
  <unicode hex="00F0"/>
  <outline>
    <contour>
      <point x="171" y="357"/>
      <point x="200" y="402"/>
      <point x="256" y="402" type="curve" smooth="yes"/>
      <point x="317" y="402"/>
      <point x="341" y="350"/>
      <point x="341" y="213" type="curve" smooth="yes"/>
      <point x="341" y="82"/>
      <point x="320" y="24"/>
      <point x="256" y="24" type="curve" smooth="yes"/>
      <point x="201" y="24"/>
      <point x="171" y="72"/>
      <point x="171" y="213" type="curve" smooth="yes"/>
    </contour>
    <contour>
      <point x="497" y="500"/>
      <point x="306" y="600"/>
      <point x="132" y="607" type="curve"/>
      <point x="112" y="575" type="line"/>
      <point x="178" y="565"/>
      <point x="285" y="505"/>
      <point x="320" y="397" type="curve"/>
      <point x="334" y="397" type="line"/>
      <point x="322" y="420"/>
      <point x="280" y="437"/>
      <point x="227" y="437" type="curve" smooth="yes"/>
      <point x="111" y="437"/>
      <point x="15" y="370"/>
      <point x="15" y="213" type="curve" smooth="yes"/>
      <point x="15" y="67"/>
      <point x="101" y="-11"/>
      <point x="256" y="-11" type="curve" smooth="yes"/>
      <point x="420" y="-11"/>
      <point x="497" y="85"/>
      <point x="497" y="227" type="curve" smooth="yes"/>
    </contour>
    <contour>
      <point x="381" y="589" type="line"/>
      <point x="364" y="620" type="line"/>
      <point x="125" y="483" type="line"/>
      <point x="143" y="452" type="line"/>
    </contour>
  </outline>
</glyph>
<glyph name="Lslash" format="1">
  <advance width="514"/>
  <unicode hex="0141"/>
  <outline>
    <contour>
      <point x="50" y="165" type="line"/>
      <point x="158" y="255" type="line"/>
      <point x="158" y="310" type="line"/>
      <point x="50" y="220" type="line"/>
    </contour>
    <contour>
      <point x="349" y="464" type="line"/>
      <point x="208" y="346" type="line"/>
      <point x="208" y="291" type="line"/>
      <point x="349" y="407" type="line"/>
    </contour>
    <component base="L"/>
  </outline>
</glyph>
<glyph name="lslash" format="1">
  <advance width="265"/>
  <unicode hex="0142"/>
  <outline>
    <contour>
      <point x="5" y="274" type="line"/>
      <point x="118" y="368" type="line"/>
      <point x="118" y="423" type="line"/>
      <point x="5" y="329" type="line"/>
    </contour>
    <contour>
      <point x="261" y="536" type="line"/>
      <point x="168" y="458" type="line"/>
      <point x="168" y="403" type="line"/>
      <point x="261" y="480" type="line"/>
    </contour>
    <component base="l"/>
  </outline>
</glyph>
<glyph name="OE" format="1">
  <advance width="920"/>
  <unicode hex="0152"/>
  <outline>
    <contour>
      <point x="25" y="107"/>
      <point x="138" y="-10"/>
      <point x="339" y="-10" type="curve" smooth="yes"/>
      <point x="342" y="-10"/>
      <point x="407" y="0"/>
      <point x="479" y="0" type="curve" smooth="yes"/>
      <point x="778" y="0" type="line" smooth="yes"/>
      <point x="826" y="0"/>
      <point x="858" y="-1"/>
      <point x="876" y="-3" type="curve"/>
      <point x="876" y="179" type="line"/>
      <point x="839" y="179" type="line"/>
      <point x="839" y="89"/>
      <point x="792" y="38"/>
      <point x="699" y="38" type="curve" smooth="yes"/>
      <point x="601" y="38" type="line" smooth="yes"/>
      <point x="592" y="38"/>
      <point x="588" y="42"/>
      <point x="588" y="51" type="curve" smooth="yes"/>
      <point x="588" y="287" type="line"/>
      <point x="651" y="287" type="line" smooth="yes"/>
      <point x="692" y="287"/>
      <point x="728" y="245"/>
      <point x="728" y="190" type="curve"/>
      <point x="765" y="190" type="line"/>
      <point x="765" y="426" type="line"/>
      <point x="728" y="426" type="line"/>
      <point x="728" y="363"/>
      <point x="697" y="325"/>
      <point x="651" y="325" type="curve" smooth="yes"/>
      <point x="588" y="325" type="line"/>
      <point x="588" y="545" type="line" smooth="yes"/>
      <point x="588" y="554"/>
      <point x="592" y="559"/>
      <point x="601" y="559" type="curve" smooth="yes"/>
      <point x="667" y="559" type="line" smooth="yes"/>
      <point x="766" y="559"/>
      <point x="809" y="527"/>
      <point x="809" y="443" type="curve"/>
      <point x="846" y="443" type="line"/>
      <point x="846" y="597" type="line"/>
      <point x="471" y="597" type="line" smooth="yes"/>
      <point x="424" y="597"/>
      <point x="395" y="607"/>
      <point x="342" y="607" type="curve" smooth="yes"/>
      <point x="123" y="607"/>
      <point x="25" y="483"/>
      <point x="25" y="292" type="curve" smooth="yes"/>
    </contour>
    <contour>
      <point x="192" y="499"/>
      <point x="234" y="571"/>
      <point x="335" y="571" type="curve" smooth="yes"/>
      <point x="390" y="571"/>
      <point x="434" y="551"/>
      <point x="434" y="526" type="curve" smooth="yes"/>
      <point x="434" y="90" type="line" smooth="yes"/>
      <point x="434" y="61"/>
      <point x="415" y="28"/>
      <point x="335" y="28" type="curve" smooth="yes"/>
      <point x="233" y="28"/>
      <point x="192" y="96"/>
      <point x="192" y="296" type="curve" smooth="yes"/>
    </contour>
    <contour>
      <point x="433" y="598" type="move" name="top"/>
    </contour>
  </outline>
</glyph>
<glyph name="oe" format="1">
  <advance width="770"/>
  <unicode hex="0153"/>
  <outline>
    <contour>
      <point x="483.789" y="437"/>
      <point x="433.523" y="423.144"/>
      <point x="395.532" y="393.119" type="curve"/>
      <point x="358.979" y="422.292"/>
      <point x="309.456" y="437"/>
      <point x="246" y="437" type="curve" smooth="yes"/>
      <point x="89.9999" y="437"/>
      <point x="14.9999" y="359"/>
      <point x="14.9999" y="214" type="curve" smooth="yes"/>
      <point x="14.9999" y="67"/>
      <point x="89.9999" y="-10"/>
      <point x="246" y="-10" type="curve" smooth="yes"/>
      <point x="308.877" y="-10"/>
      <point x="358.074" y="4.4405"/>
      <point x="394.529" y="33.0867" type="curve"/>
      <point x="432.249" y="3.9191"/>
      <point x="483.185" y="-10"/>
      <point x="549" y="-10" type="curve" smooth="yes"/>
      <point x="651" y="-10"/>
      <point x="719" y="28"/>
      <point x="751" y="93" type="curve"/>
      <point x="723" y="112" type="line"/>
      <point x="704" y="74"/>
      <point x="660" y="33"/>
      <point x="593" y="33" type="curve" smooth="yes"/>
      <point x="509" y="34"/>
      <point x="467" y="95"/>
      <point x="467" y="207" type="curve"/>
      <point x="755" y="207" type="line"/>
      <point x="755" y="246" type="line" smooth="yes"/>
      <point x="755" y="372"/>
      <point x="669" y="437"/>
      <point x="546" y="437" type="curve" smooth="yes"/>
    </contour>
    <contour>
      <point x="300" y="400"/>
      <point x="321" y="353"/>
      <point x="321" y="212" type="curve" smooth="yes"/>
      <point x="321" y="74"/>
      <point x="300" y="27"/>
      <point x="246" y="27" type="curve" smooth="yes"/>
      <point x="195" y="27"/>
      <point x="171" y="74"/>
      <point x="171" y="212" type="curve" smooth="yes"/>
      <point x="171" y="353"/>
      <point x="195" y="400"/>
      <point x="246" y="400" type="curve" smooth="yes"/>
    </contour>
    <contour>
      <point x="588" y="400"/>
      <point x="605" y="358"/>
      <point x="605" y="275" type="curve" smooth="yes"/>
      <point x="605" y="248"/>
      <point x="597" y="242"/>
      <point x="585" y="242" type="curve" smooth="yes"/>
      <point x="468" y="242" type="line"/>
      <point x="468" y="328"/>
      <point x="488" y="400"/>
      <point x="542" y="400" type="curve" smooth="yes"/>
    </contour>
  </outline>
</glyph>
<glyph name="breve" format="1">
  <advance width="341"/>
  <unicode hex="02D8"/>
  <outline>
    <contour>
      <point x="258" y="642" type="line"/>
      <point x="250" y="611"/>
      <point x="224" y="578"/>
      <point x="170" y="578" type="curve" smooth="yes"/>
      <point x="113" y="578"/>
      <point x="91" y="611"/>
      <point x="83" y="642" type="curve"/>
      <point x="35" y="642" type="line"/>
      <point x="35" y="563"/>
      <point x="89" y="508"/>
      <point x="170" y="508" type="curve" smooth="yes"/>
      <point x="251" y="508"/>
      <point x="306" y="563"/>
      <point x="306" y="642" type="curve"/>
    </contour>
    <contour>
      <point x="170.5" y="420" type="move" name="_top"/>
    </contour>
  </outline>
</glyph>
<glyph name="ogonek" format="1">
  <advance width="242"/>
  <unicode hex="02DB"/>
  <outline>
    <contour>
      <point x="205" y="-77" type="line"/>
      <point x="183" y="-89"/>
      <point x="159" y="-96"/>
      <point x="135" y="-96" type="curve" smooth="yes"/>
      <point x="102" y="-96"/>
      <point x="87" y="-76"/>
      <point x="87" y="-52" type="curve" smooth="yes"/>
      <point x="87" y="-23"/>
      <point x="102" y="1"/>
      <point x="128" y="14" type="curve"/>
      <point x="90" y="14" type="line"/>
      <point x="40" y="-9"/>
      <point x="15" y="-47"/>
      <point x="15" y="-87" type="curve" smooth="yes"/>
      <point x="15" y="-135"/>
      <point x="57" y="-159"/>
      <point x="99" y="-159" type="curve" smooth="yes"/>
      <point x="142" y="-159"/>
      <point x="184" y="-137"/>
      <point x="217" y="-99" type="curve"/>
    </contour>
    <contour>
      <point x="128" y="14" type="move" name="_ogonek"/>
    </contour>
  </outline>
</glyph>
<glyph name="tilde" format="1">
  <advance width="356"/>
  <unicode hex="02DC"/>
  <outline>
    <contour>
      <point x="65" y="525" type="line"/>
      <point x="65" y="548"/>
      <point x="79" y="562"/>
      <point x="98" y="562" type="curve" smooth="yes"/>
      <point x="136" y="562"/>
      <point x="206" y="524"/>
      <point x="257" y="524" type="curve" smooth="yes"/>
      <point x="304" y="524"/>
      <point x="321" y="566"/>
      <point x="321" y="625" type="curve"/>
      <point x="291" y="625" type="line"/>
      <point x="291" y="602"/>
      <point x="277" y="588"/>
      <point x="258" y="588" type="curve" smooth="yes"/>
      <point x="221" y="588"/>
      <point x="149" y="626"/>
      <point x="99" y="626" type="curve" smooth="yes"/>
      <point x="52" y="626"/>
      <point x="35" y="584"/>
      <point x="35" y="525" type="curve"/>
    </contour>
    <contour>
      <point x="178" y="420" type="move" name="_top"/>
    </contour>
  </outline>
</glyph>
<glyph name="hungarumlaut" format="1">
  <advance width="359"/>
  <unicode hex="02DD"/>
  <outline>
    <contour>
      <point x="36" y="509"/>
      <point x="35" y="505"/>
      <point x="35" y="501" type="curve" smooth="yes"/>
      <point x="35" y="497"/>
      <point x="38" y="491"/>
      <point x="46" y="491" type="curve" smooth="yes"/>
      <point x="53" y="491"/>
      <point x="60" y="494"/>
      <point x="73" y="506" type="curve" smooth="yes"/>
      <point x="163" y="588"/>
      <point x="179" y="603"/>
      <point x="188" y="612" type="curve" smooth="yes"/>
      <point x="192" y="617"/>
      <point x="194" y="621"/>
      <point x="194" y="624" type="curve" smooth="yes"/>
      <point x="194" y="630"/>
      <point x="190" y="634"/>
      <point x="185" y="636" type="curve" smooth="yes"/>
      <point x="173" y="640"/>
      <point x="132" y="653"/>
      <point x="121" y="653" type="curve" smooth="yes"/>
      <point x="116" y="653"/>
      <point x="114" y="652"/>
      <point x="108" y="644" type="curve" smooth="yes"/>
      <point x="104" y="638"/>
      <point x="94" y="619"/>
      <point x="38" y="513" type="curve" smooth="yes"/>
    </contour>
    <contour>
      <point x="166" y="509"/>
      <point x="165" y="505"/>
      <point x="165" y="501" type="curve" smooth="yes"/>
      <point x="165" y="497"/>
      <point x="168" y="491"/>
      <point x="176" y="491" type="curve" smooth="yes"/>
      <point x="183" y="491"/>
      <point x="190" y="494"/>
      <point x="203" y="506" type="curve" smooth="yes"/>
      <point x="293" y="588"/>
      <point x="309" y="603"/>
      <point x="318" y="612" type="curve" smooth="yes"/>
      <point x="322" y="617"/>
      <point x="324" y="621"/>
      <point x="324" y="624" type="curve" smooth="yes"/>
      <point x="324" y="630"/>
      <point x="320" y="634"/>
      <point x="315" y="636" type="curve" smooth="yes"/>
      <point x="303" y="640"/>
      <point x="262" y="653"/>
      <point x="251" y="653" type="curve" smooth="yes"/>
      <point x="246" y="653"/>
      <point x="244" y="652"/>
      <point x="238" y="644" type="curve" smooth="yes"/>
      <point x="234" y="638"/>
      <point x="224" y="619"/>
      <point x="168" y="513" type="curve" smooth="yes"/>
    </contour>
    <contour>
      <point x="149" y="420" type="move" name="_top"/>
    </contour>
  </outline>
</glyph>
<glyph name="Delta" format="1">
  <advance width="612"/>
  <unicode hex="0394"/>
  <outline>
    <contour>
      <point x="582" y="0" type="line"/>
      <point x="328" y="607" type="line"/>
      <point x="272" y="607" type="line"/>
      <point x="17" y="0" type="line"/>
    </contour>
    <contour>
      <point x="248" y="462" type="line"/>
      <point x="230" y="462" type="line"/>
      <point x="417" y="14" type="line"/>
      <point x="430" y="38" type="line"/>
      <point x="44" y="38" type="line"/>
      <point x="62" y="15" type="line"/>
    </contour>
  </outline>
</glyph>
<glyph name="pi" format="1">
  <advance width="623"/>
  <unicode hex="03C0"/>
  <outline>
    <contour>
      <point x="580" y="463" type="line"/>
      <point x="570" y="433"/>
      <point x="562" y="420"/>
      <point x="526" y="420" type="curve" smooth="yes"/>
      <point x="461" y="420"/>
      <point x="299" y="430"/>
      <point x="190" y="430" type="curve" smooth="yes"/>
      <point x="131" y="430"/>
      <point x="70" y="399"/>
      <point x="30" y="282" type="curve"/>
      <point x="58" y="270" type="line"/>
      <point x="86" y="312"/>
      <point x="123" y="325"/>
      <point x="176" y="325" type="curve" smooth="yes"/>
      <point x="289" y="325"/>
      <point x="430" y="315"/>
      <point x="521" y="315" type="curve" smooth="yes"/>
      <point x="566" y="315" type="line" smooth="yes"/>
      <point x="581" y="315"/>
      <point x="590" y="314"/>
      <point x="596" y="313" type="curve"/>
      <point x="596" y="332" type="line" smooth="yes"/>
      <point x="596" y="356"/>
      <point x="598" y="393"/>
      <point x="613" y="458" type="curve"/>
    </contour>
    <contour>
      <point x="363" y="365" type="line"/>
      <point x="353" y="305"/>
      <point x="340" y="195"/>
      <point x="340" y="113" type="curve" smooth="yes"/>
      <point x="340" y="52"/>
      <point x="367" y="-6"/>
      <point x="467" y="-6" type="curve" smooth="yes"/>
      <point x="525" y="-6"/>
      <point x="559" y="9"/>
      <point x="590" y="50" type="curve"/>
      <point x="568" y="64" type="line"/>
      <point x="553" y="46"/>
      <point x="537" y="33"/>
      <point x="515" y="33" type="curve" smooth="yes"/>
      <point x="482" y="33"/>
      <point x="476" y="69"/>
      <point x="476" y="126" type="curve" smooth="yes"/>
      <point x="476" y="188"/>
      <point x="482" y="279"/>
      <point x="487" y="365" type="curve"/>
    </contour>
    <contour>
      <point x="212" y="378" type="line"/>
      <point x="206" y="322"/>
      <point x="192" y="224"/>
      <point x="178" y="153" type="curve" smooth="yes"/>
      <point x="171" y="117"/>
      <point x="168" y="97"/>
      <point x="139" y="97" type="curve" smooth="yes"/>
      <point x="118" y="97"/>
      <point x="103" y="122"/>
      <point x="77" y="122" type="curve" smooth="yes"/>
      <point x="46" y="122"/>
      <point x="23" y="93"/>
      <point x="23" y="55" type="curve" smooth="yes"/>
      <point x="23" y="11"/>
      <point x="63" y="-10"/>
      <point x="88" y="-10" type="curve" smooth="yes"/>
      <point x="186" y="-10"/>
      <point x="210" y="84"/>
      <point x="221" y="144" type="curve" smooth="yes"/>
      <point x="235" y="219"/>
      <point x="251" y="320"/>
      <point x="255" y="378" type="curve"/>
    </contour>
  </outline>
</glyph>
<glyph name="daggerdbl" format="1">
  <advance width="528"/>
  <unicode hex="2021"/>
  <outline>
    <contour>
      <point x="240" y="390" type="line"/>
      <point x="240" y="342"/>
      <point x="189" y="336"/>
      <point x="189" y="299" type="curve" smooth="yes"/>
      <point x="189" y="281"/>
      <point x="202" y="259"/>
      <point x="217" y="244" type="curve"/>
      <point x="301" y="244" type="line"/>
      <point x="316" y="259"/>
      <point x="329" y="281"/>
      <point x="329" y="299" type="curve" smooth="yes"/>
      <point x="329" y="336"/>
      <point x="278" y="342"/>
      <point x="278" y="390" type="curve"/>
    </contour>
    <contour>
      <point x="278" y="390" type="line"/>
      <point x="299" y="436"/>
      <point x="319" y="437"/>
      <point x="319" y="467" type="curve" smooth="yes"/>
      <point x="319" y="493"/>
      <point x="287" y="493"/>
      <point x="287" y="514" type="curve" smooth="yes"/>
      <point x="287" y="541"/>
      <point x="337" y="537"/>
      <point x="337" y="574" type="curve" smooth="yes"/>
      <point x="337" y="608"/>
      <point x="304" y="640"/>
      <point x="259" y="640" type="curve" smooth="yes"/>
      <point x="214" y="640"/>
      <point x="181" y="608"/>
      <point x="181" y="574" type="curve" smooth="yes"/>
      <point x="181" y="537"/>
      <point x="231" y="541"/>
      <point x="231" y="514" type="curve" smooth="yes"/>
      <point x="231" y="496"/>
      <point x="199" y="493"/>
      <point x="199" y="467" type="curve" smooth="yes"/>
      <point x="199" y="437"/>
      <point x="219" y="436"/>
      <point x="240" y="390" type="curve"/>
    </contour>
    <contour>
      <point x="265" y="403" type="line"/>
      <point x="292" y="377"/>
      <point x="313" y="370"/>
      <point x="334" y="370" type="curve" smooth="yes"/>
      <point x="355" y="370"/>
      <point x="359" y="387"/>
      <point x="381" y="387" type="curve" smooth="yes"/>
      <point x="407" y="387"/>
      <point x="404" y="348"/>
      <point x="442" y="348" type="curve" smooth="yes"/>
      <point x="472" y="348"/>
      <point x="483" y="373"/>
      <point x="483" y="402" type="curve" smooth="yes"/>
      <point x="483" y="445"/>
      <point x="460" y="468"/>
      <point x="428" y="468" type="curve" smooth="yes"/>
      <point x="358" y="468"/>
      <point x="371" y="416"/>
      <point x="263" y="416" type="curve"/>
      <point x="255" y="416" type="line"/>
      <point x="149" y="416"/>
      <point x="155" y="468"/>
      <point x="90" y="468" type="curve" smooth="yes"/>
      <point x="58" y="468"/>
      <point x="35" y="445"/>
      <point x="35" y="402" type="curve" smooth="yes"/>
      <point x="35" y="373"/>
      <point x="46" y="348"/>
      <point x="77" y="348" type="curve" smooth="yes"/>
      <point x="113" y="348"/>
      <point x="112" y="387"/>
      <point x="139" y="387" type="curve" smooth="yes"/>
      <point x="159" y="387"/>
      <point x="163" y="370"/>
      <point x="184" y="370" type="curve" smooth="yes"/>
      <point x="205" y="370"/>
      <point x="226" y="377"/>
      <point x="253" y="403" type="curve"/>
    </contour>
    <contour>
      <point x="278" y="146"/>
      <point x="329" y="152"/>
      <point x="329" y="189" type="curve" smooth="yes"/>
      <point x="329" y="207"/>
      <point x="316" y="229"/>
      <point x="301" y="244" type="curve"/>
      <point x="217" y="244" type="line"/>
      <point x="202" y="229"/>
      <point x="189" y="207"/>
      <point x="189" y="189" type="curve" smooth="yes"/>
      <point x="189" y="152"/>
      <point x="240" y="146"/>
      <point x="240" y="98" type="curve"/>
      <point x="278" y="98" type="line"/>
    </contour>
    <contour>
      <point x="219" y="52"/>
      <point x="199" y="51"/>
      <point x="199" y="21" type="curve" smooth="yes"/>
      <point x="199" y="-5"/>
      <point x="231" y="-8"/>
      <point x="231" y="-26" type="curve" smooth="yes"/>
      <point x="231" y="-53"/>
      <point x="181" y="-49"/>
      <point x="181" y="-86" type="curve" smooth="yes"/>
      <point x="181" y="-120"/>
      <point x="214" y="-152"/>
      <point x="259" y="-152" type="curve" smooth="yes"/>
      <point x="304" y="-152"/>
      <point x="337" y="-120"/>
      <point x="337" y="-86" type="curve" smooth="yes"/>
      <point x="337" y="-49"/>
      <point x="287" y="-53"/>
      <point x="287" y="-26" type="curve" smooth="yes"/>
      <point x="287" y="-5"/>
      <point x="319" y="-5"/>
      <point x="319" y="21" type="curve" smooth="yes"/>
      <point x="319" y="51"/>
      <point x="299" y="52"/>
      <point x="278" y="98" type="curve"/>
      <point x="240" y="98" type="line"/>
    </contour>
    <contour>
      <point x="226" y="111"/>
      <point x="205" y="118"/>
      <point x="184" y="118" type="curve" smooth="yes"/>
      <point x="163" y="118"/>
      <point x="159" y="101"/>
      <point x="139" y="101" type="curve" smooth="yes"/>
      <point x="112" y="101"/>
      <point x="113" y="140"/>
      <point x="77" y="140" type="curve" smooth="yes"/>
      <point x="46" y="140"/>
      <point x="35" y="115"/>
      <point x="35" y="86" type="curve" smooth="yes"/>
      <point x="35" y="43"/>
      <point x="58" y="20"/>
      <point x="90" y="20" type="curve" smooth="yes"/>
      <point x="155" y="20"/>
      <point x="149" y="72"/>
      <point x="255" y="72" type="curve"/>
      <point x="263" y="72" type="line"/>
      <point x="371" y="72"/>
      <point x="358" y="20"/>
      <point x="428" y="20" type="curve" smooth="yes"/>
      <point x="460" y="20"/>
      <point x="483" y="43"/>
      <point x="483" y="86" type="curve" smooth="yes"/>
      <point x="483" y="115"/>
      <point x="472" y="140"/>
      <point x="442" y="140" type="curve" smooth="yes"/>
      <point x="404" y="140"/>
      <point x="407" y="101"/>
      <point x="381" y="101" type="curve" smooth="yes"/>
      <point x="359" y="101"/>
      <point x="355" y="118"/>
      <point x="334" y="118" type="curve" smooth="yes"/>
      <point x="313" y="118"/>
      <point x="292" y="111"/>
      <point x="265" y="85" type="curve"/>
      <point x="253" y="85" type="line"/>
    </contour>
  </outline>
</glyph>
<glyph name="trademark" format="1">
  <advance width="778"/>
  <unicode hex="2122"/>
  <outline>
    <contour>
      <point x="32" y="523" type="line"/>
      <point x="34" y="556"/>
      <point x="50" y="572"/>
      <point x="94" y="572" type="curve" smooth="yes"/>
      <point x="99" y="572" type="line" smooth="yes"/>
      <point x="103" y="572"/>
      <point x="105" y="570"/>
      <point x="105" y="566" type="curve" smooth="yes"/>
      <point x="105" y="347" type="line" smooth="yes"/>
      <point x="105" y="341"/>
      <point x="102" y="335"/>
      <point x="96" y="335" type="curve"/>
      <point x="69" y="336" type="line"/>
      <point x="69" y="310" type="line"/>
      <point x="249" y="310" type="line"/>
      <point x="249" y="336" type="line"/>
      <point x="222" y="335" type="line"/>
      <point x="216" y="335"/>
      <point x="212" y="338"/>
      <point x="212" y="345" type="curve" smooth="yes"/>
      <point x="212" y="566" type="line" smooth="yes"/>
      <point x="212" y="570"/>
      <point x="215" y="572"/>
      <point x="218" y="572" type="curve" smooth="yes"/>
      <point x="223" y="572" type="line" smooth="yes"/>
      <point x="268" y="572"/>
      <point x="285" y="556"/>
      <point x="285" y="523" type="curve"/>
      <point x="310" y="523" type="line"/>
      <point x="310" y="597" type="line"/>
      <point x="8" y="597" type="line"/>
      <point x="8" y="523" type="line"/>
    </contour>
    <contour>
      <point x="372" y="566" type="line"/>
      <point x="372" y="345" type="line" smooth="yes"/>
      <point x="372" y="338"/>
      <point x="369" y="335"/>
      <point x="362" y="335" type="curve"/>
      <point x="343" y="336" type="line"/>
      <point x="343" y="310" type="line"/>
      <point x="435" y="310" type="line"/>
      <point x="435" y="336" type="line"/>
      <point x="411" y="335" type="line"/>
      <point x="404" y="335"/>
      <point x="401" y="338"/>
      <point x="401" y="345" type="curve" smooth="yes"/>
      <point x="401" y="567" type="line"/>
    </contour>
    <contour>
      <point x="571" y="428" type="line"/>
      <point x="497" y="597" type="line"/>
      <point x="346" y="597" type="line"/>
      <point x="346" y="570" type="line"/>
      <point x="367" y="571" type="line"/>
      <point x="371" y="572"/>
      <point x="372" y="571"/>
      <point x="372" y="568" type="curve" smooth="yes"/>
      <point x="372" y="556" type="line"/>
      <point x="399" y="567" type="line"/>
      <point x="515" y="315" type="line"/>
    </contour>
    <contour>
      <point x="637" y="565" type="line"/>
      <point x="637" y="345" type="line" smooth="yes"/>
      <point x="637" y="338"/>
      <point x="633" y="335"/>
      <point x="627" y="335" type="curve"/>
      <point x="602" y="336" type="line"/>
      <point x="602" y="310" type="line"/>
      <point x="768" y="310" type="line"/>
      <point x="768" y="336" type="line"/>
      <point x="754" y="335" type="line"/>
      <point x="748" y="334"/>
      <point x="744" y="338"/>
      <point x="744" y="345" type="curve" smooth="yes"/>
      <point x="744" y="562" type="line" smooth="yes"/>
      <point x="744" y="567"/>
      <point x="748" y="572"/>
      <point x="754" y="571" type="curve"/>
      <point x="765" y="570" type="line"/>
      <point x="765" y="597" type="line"/>
      <point x="637" y="597" type="line"/>
    </contour>
    <contour>
      <point x="637" y="597" type="line"/>
      <point x="529" y="359" type="line"/>
      <point x="515" y="315" type="line"/>
      <point x="538" y="315" type="line"/>
      <point x="651" y="564" type="line"/>
    </contour>
  </outline>
</glyph>
<glyph name="partialdiff" format="1">
  <advance width="479"/>
  <unicode hex="2202"/>
  <outline>
    <contour>
      <point x="316" y="308"/>
      <point x="259" y="325"/>
      <point x="186" y="325" type="curve" smooth="yes"/>
      <point x="89" y="325"/>
      <point x="15" y="258"/>
      <point x="15" y="154" type="curve" smooth="yes"/>
      <point x="15" y="27"/>
      <point x="143" y="-11"/>
      <point x="227" y="-11" type="curve" smooth="yes"/>
      <point x="431" y="-11"/>
      <point x="464" y="214"/>
      <point x="464" y="310" type="curve" smooth="yes"/>
      <point x="464" y="504"/>
      <point x="360" y="605"/>
      <point x="226" y="605" type="curve" smooth="yes"/>
      <point x="150" y="605"/>
      <point x="55" y="574"/>
      <point x="55" y="505" type="curve" smooth="yes"/>
      <point x="55" y="474"/>
      <point x="73" y="441"/>
      <point x="121" y="441" type="curve" smooth="yes"/>
      <point x="177" y="441"/>
      <point x="191" y="469"/>
      <point x="191" y="488" type="curve" smooth="yes"/>
      <point x="191" y="507"/>
      <point x="182" y="523"/>
      <point x="182" y="538" type="curve" smooth="yes"/>
      <point x="182" y="558"/>
      <point x="195" y="568"/>
      <point x="221" y="568" type="curve" smooth="yes"/>
      <point x="282" y="568"/>
      <point x="316" y="483"/>
      <point x="316" y="357" type="curve" smooth="yes"/>
      <point x="316" y="261"/>
      <point x="298" y="26"/>
      <point x="223" y="26" type="curve" smooth="yes"/>
      <point x="184" y="26"/>
      <point x="162" y="52"/>
      <point x="162" y="119" type="curve" smooth="yes"/>
      <point x="162" y="228"/>
      <point x="200" y="278"/>
      <point x="250" y="278" type="curve" smooth="yes"/>
      <point x="283" y="278"/>
      <point x="315" y="254"/>
      <point x="329" y="219" type="curve"/>
      <point x="365" y="243" type="line"/>
    </contour>
  </outline>
</glyph>
<glyph name="product" format="1">
  <advance width="643"/>
  <unicode hex="220F"/>
  <outline>
    <contour>
      <point x="285" y="-80" type="line"/>
      <point x="285" y="-41" type="line"/>
      <point x="261" y="-43" type="line" smooth="yes"/>
      <point x="248" y="-44"/>
      <point x="241" y="-36"/>
      <point x="241" y="-21" type="curve" smooth="yes"/>
      <point x="241" y="556" type="line"/>
      <point x="402" y="556" type="line"/>
      <point x="402" y="-21" type="line" smooth="yes"/>
      <point x="402" y="-36"/>
      <point x="396" y="-44"/>
      <point x="383" y="-43" type="curve" smooth="yes"/>
      <point x="359" y="-41" type="line"/>
      <point x="359" y="-80" type="line"/>
      <point x="608" y="-80" type="line"/>
      <point x="608" y="-41" type="line"/>
      <point x="574" y="-43" type="line" smooth="yes"/>
      <point x="561" y="-44"/>
      <point x="555" y="-36"/>
      <point x="555" y="-21" type="curve" smooth="yes"/>
      <point x="555" y="538" type="line" smooth="yes"/>
      <point x="555" y="550"/>
      <point x="561" y="560"/>
      <point x="574" y="559" type="curve" smooth="yes"/>
      <point x="608" y="557" type="line"/>
      <point x="608" y="597" type="line"/>
      <point x="35" y="597" type="line"/>
      <point x="35" y="557" type="line"/>
      <point x="69" y="559" type="line" smooth="yes"/>
      <point x="84" y="560"/>
      <point x="88" y="549"/>
      <point x="88" y="538" type="curve" smooth="yes"/>
      <point x="88" y="-21" type="line" smooth="yes"/>
      <point x="88" y="-36"/>
      <point x="82" y="-44"/>
      <point x="69" y="-43" type="curve" smooth="yes"/>
      <point x="35" y="-41" type="line"/>
      <point x="35" y="-80" type="line"/>
    </contour>
  </outline>
</glyph>
<glyph name="summation" format="1">
  <advance width="511"/>
  <unicode hex="2211"/>
  <outline>
    <contour>
      <point x="147" y="559" type="line"/>
      <point x="342" y="559" type="line" smooth="yes"/>
      <point x="401" y="559"/>
      <point x="427" y="536"/>
      <point x="434" y="468" type="curve"/>
      <point x="474" y="468" type="line"/>
      <point x="470" y="507"/>
      <point x="464" y="580"/>
      <point x="464" y="600" type="curve"/>
      <point x="453" y="597"/>
      <point x="414" y="597"/>
      <point x="361" y="597" type="curve" smooth="yes"/>
      <point x="48" y="597" type="line"/>
      <point x="48" y="537" type="line"/>
    </contour>
    <contour>
      <point x="38" y="-55" type="line"/>
      <point x="38" y="-80" type="line"/>
      <point x="354" y="-80" type="line" smooth="yes"/>
      <point x="406" y="-80"/>
      <point x="444" y="-80"/>
      <point x="455" y="-83" type="curve"/>
      <point x="455" y="-59"/>
      <point x="462" y="29"/>
      <point x="473" y="74" type="curve"/>
      <point x="436" y="74" type="line"/>
      <point x="429" y="36"/>
      <point x="398" y="25"/>
      <point x="347" y="25" type="curve" smooth="yes"/>
      <point x="96" y="25" type="line"/>
    </contour>
    <contour>
      <point x="48" y="537" type="line"/>
      <point x="233" y="197" type="line"/>
      <point x="331" y="330" type="line"/>
      <point x="203" y="579" type="line"/>
    </contour>
    <contour>
      <point x="111" y="-24" type="line"/>
      <point x="331" y="330" type="line"/>
      <point x="274" y="330" type="line"/>
      <point x="38" y="-55" type="line"/>
    </contour>
  </outline>
</glyph>
<glyph name="greaterequal" format="1">
  <advance width="460"/>
  <unicode hex="2265"/>
  <outline>
    <contour>
      <point x="54" y="477" type="line"/>
      <point x="54" y="421" type="line"/>
      <point x="285" y="315" type="line"/>
      <point x="341" y="298" type="line"/>
      <point x="285" y="282" type="line"/>
      <point x="54" y="176" type="line"/>
      <point x="54" y="120" type="line"/>
      <point x="406" y="286" type="line"/>
      <point x="406" y="311" type="line"/>
    </contour>
    <contour>
      <point x="54" y="0" type="line"/>
      <point x="406" y="0" type="line"/>
      <point x="406" y="51" type="line"/>
      <point x="54" y="51" type="line"/>
    </contour>
  </outline>
</glyph>
<glyph name="fl" format="1">
  <advance width="600"/>
  <unicode hex="FB02"/>
  <outline>
    <contour>
      <point x="585" y="0" type="line"/>
      <point x="585" y="36" type="line"/>
      <point x="554" y="34" type="line" smooth="yes"/>
      <point x="545" y="33"/>
      <point x="541" y="40"/>
      <point x="541" y="53" type="curve" smooth="yes"/>
      <point x="541" y="731" type="line"/>
      <point x="349" y="731" type="line"/>
      <point x="349" y="696" type="line"/>
      <point x="383" y="698" type="line"/>
      <point x="391" y="695"/>
      <point x="395" y="688"/>
      <point x="395" y="677" type="curve" smooth="yes"/>
      <point x="395" y="53" type="line" smooth="yes"/>
      <point x="395" y="42"/>
      <point x="391" y="36"/>
      <point x="382" y="34" type="curve"/>
      <point x="330" y="36" type="line"/>
      <point x="330" y="0" type="line"/>
    </contour>
    <component base="f.ss01"/>
  </outline>
</glyph>
<glyph name="circumflex.case" format="1">
  <advance width="382"/>
  <outline>
    <component base="circumflex" yOffset="173"/>
    <contour>
      <point x="191" y="598" type="move" name="_top"/>
    </contour>
  </outline>
</glyph>
<glyph name="circumflex.narrow" format="1">
  <advance width="340"/>
  <outline>
    <contour>
      <point x="170" y="564" type="line"/>
      <point x="268" y="503" type="line" smooth="yes"/>
      <point x="279" y="497"/>
      <point x="289" y="493"/>
      <point x="293" y="493" type="curve" smooth="yes"/>
      <point x="301" y="493"/>
      <point x="305" y="498"/>
      <point x="305" y="505" type="curve" smooth="yes"/>
      <point x="305" y="510"/>
      <point x="298" y="519"/>
      <point x="289" y="530" type="curve" smooth="yes"/>
      <point x="195" y="644" type="line" smooth="yes"/>
      <point x="186" y="654"/>
      <point x="179" y="659"/>
      <point x="170" y="659" type="curve" smooth="yes"/>
      <point x="162" y="659"/>
      <point x="154" y="655"/>
      <point x="145" y="644" type="curve" smooth="yes"/>
      <point x="51" y="530" type="line" smooth="yes"/>
      <point x="42" y="519"/>
      <point x="35" y="510"/>
      <point x="35" y="505" type="curve" smooth="yes"/>
      <point x="35" y="498"/>
      <point x="39" y="493"/>
      <point x="47" y="493" type="curve" smooth="yes"/>
      <point x="51" y="493"/>
      <point x="61" y="497"/>
      <point x="72" y="503" type="curve" smooth="yes"/>
    </contour>
    <contour>
      <point x="170" y="420" type="move" name="_top"/>
    </contour>
  </outline>
</glyph>
<glyph name="hungarumlaut.case" format="1">
  <advance width="359"/>
  <outline>
    <component base="hungarumlaut" yOffset="173"/>
    <contour>
      <point x="156" y="598" type="move" name="_top"/>
    </contour>
  </outline>
</glyph>
<glyph name="tilde.case" format="1">
  <advance width="356"/>
  <outline>
    <component base="tilde" yOffset="146"/>
    <contour>
      <point x="178" y="598" type="move" name="_top"/>
    </contour>
  </outline>
</glyph>
